<?xml version="1.0" encoding="UTF-8" standalone="no"?>
<svg width="116px" height="116px" viewBox="0 0 116 116" version="1.1" xmlns="http://www.w3.org/2000/svg" xmlns:xlink="http://www.w3.org/1999/xlink" xmlns:sketch="http://www.bohemiancoding.com/sketch/ns">
    <!-- Generator: Sketch 3.5.2 (25235) - http://www.bohemiancoding.com/sketch -->
    <title>Group 6</title>
    <desc>Created with Sketch.</desc>
    <defs>
        <path id="path-1" d="M0,0.751058824 L69.2905405,0.751058824 L69.2905405,80 L0,80 L0,0.751058824 Z"></path>
        <path id="path-3" d="M0,0.0551023392 L66.8028841,0.0551023392 L66.8028841,55 L0,55 L0,0.0551023392 Z"></path>
    </defs>
    <g id="Page-1" stroke="none" stroke-width="1" fill="none" fill-rule="evenodd" sketch:type="MSPage">
        <g id="ICON" sketch:type="MSArtboardGroup" transform="translate(-491.000000, -1338.000000)">
            <g id="Group-6" sketch:type="MSLayerGroup" transform="translate(492.000000, 1339.000000)">
                <g id="Group-4" stroke="#375874" stroke-width="2" sketch:type="MSShapeGroup">
                    <circle id="Oval-5-Copy-4" cx="57" cy="57" r="57"></circle>
                </g>
                <g id="Page-1-Copy-4" transform="translate(20.000000, 6.000000)">
                    <mask id="mask-2" sketch:name="Clip 2" fill="white">
                        <use xlink:href="#path-1"></use>
                    </mask>
                    <g id="Clip-2"></g>
                </g>
                <g id="Page-1" transform="translate(24.000000, 31.000000)">
                    <mask id="mask-4" sketch:name="Clip 2" fill="white">
                        <use xlink:href="#path-3"></use>
                    </mask>
                    <g id="Clip-2"></g>
                    <path d="M21.9472609,42.7205848 L5.23318841,42.7205848 L5.23318841,37.9032456 L21.9472609,37.9032456 L21.9472609,42.7205848 Z M5.23318841,43.9645906 L21.9472609,43.9645906 L21.9472609,48.7809503 L5.23318841,48.7809503 L5.23318841,43.9645906 Z M21.9472609,29.6056287 L21.9472609,36.6592398 L5.23318841,36.6592398 L5.23318841,29.6056287 L21.9472609,29.6056287 Z M4,29.6056287 L4,54.3779971 C4,54.7218129 4.27673913,55 4.6165942,55 C4.95742029,55 5.23318841,54.7218129 5.23318841,54.3779971 L5.23318841,50.0249561 L21.9472609,50.0249561 L21.9472609,54.3779971 C21.9472609,54.7218129 22.224,55 22.5638551,55 C22.9046812,55 23.1804493,54.7218129 23.1804493,54.3779971 L23.1804493,29.6056287 L4,29.6056287 Z" id="Fill-1" fill="#F14A83" sketch:type="MSShapeGroup" mask="url(#mask-4)"></path>
                    <path d="M4,30.3588889 L23.1823913,30.3588889 L23.1823913,29.1834503 L4,29.1834503 L4,30.3588889 Z" id="Fill-4" fill="#F14A83" sketch:type="MSShapeGroup" mask="url(#mask-4)"></path>
                    <path id="Fill-5" fill="#FFFFFF" sketch:type="MSShapeGroup" mask="url(#mask-4)"></path>
                    <path d="M9.24007971,4.43743129 L9.24007971,28.9482646 L18.0879638,28.9482646 L18.0879638,4.51971199 L9.75860145,4.51971199 C9.57799275,4.51971199 9.40321014,4.49032602 9.24007971,4.43743129" id="Fill-6" fill="#FFFFFF" sketch:type="MSShapeGroup" mask="url(#mask-4)"></path>
                    <path d="M18.0877696,28.9486564 L9.23988551,28.9486564 L9.23988551,4.4378231 C9.40301594,4.49071784 9.57779855,4.5201038 9.75840725,4.5201038 L18.0877696,4.5201038 L18.0877696,28.9486564 Z M9.75840725,3.34368567 C9.47195797,3.34368567 9.23988551,3.10957749 9.23988551,2.82159503 L8.65727681,2.82159503 L8.07466812,2.82159503 L8.07466812,30.124095 L19.252987,30.124095 L19.252987,3.34368567 L9.75840725,3.34368567 Z" id="Fill-7" fill="#F14A83" sketch:type="MSShapeGroup" mask="url(#mask-4)"></path>
                    <path d="M56.9231058,1.23093275 L9.75801884,1.23093275 C9.47254058,1.23093275 9.24046812,1.46504094 9.24046812,1.75400292 L9.25114928,3.34378363 L56.9231058,3.34378363 C57.2085841,3.34378363 57.4416275,3.10967544 57.4416275,2.82169298 L57.4416275,1.75400292 C57.4416275,1.46504094 57.2085841,1.23093275 56.9231058,1.23093275" id="Fill-8" fill="#FFFFFF" sketch:type="MSShapeGroup" mask="url(#mask-4)"></path>
                    <path d="M57.4418217,2.82130117 C57.4418217,3.10928363 57.2087783,3.34437135 56.9233,3.34437135 L9.25134348,3.34437135 L9.2396913,1.75361111 C9.2396913,1.46562865 9.47273478,1.23054094 9.75821304,1.23054094 L56.9233,1.23054094 C57.2087783,1.23054094 57.4418217,1.46562865 57.4418217,1.75361111 L57.4418217,2.82130117 Z M56.9233,0.0551023392 L9.75821304,0.0551023392 C8.82992319,0.0551023392 8.07447391,0.817178363 8.07447391,1.75850877 L8.0938942,4.51980994 L56.9233,4.51980994 C57.8515899,4.51980994 58.6060681,3.75773392 58.6060681,2.82130117 L58.6060681,1.75361111 C58.6060681,0.817178363 57.8515899,0.0551023392 56.9233,0.0551023392 L56.9233,0.0551023392 Z" id="Fill-9" fill="#F14A83" sketch:type="MSShapeGroup" mask="url(#mask-4)"></path>
                    <path d="M60.285,51.4104471 C60.285,52.6113882 59.3031081,53.5883294 58.0960811,53.5883294 C56.8890541,53.5883294 55.9071622,52.6113882 55.9071622,51.4104471 C55.9071622,49.4311529 54.2886486,47.8208 52.2993243,47.8208 C50.31,47.8208 48.6914865,49.4311529 48.6914865,51.4104471 C48.6914865,52.6113882 47.7095946,53.5883294 46.5025676,53.5883294 C45.2955405,53.5883294 44.3136486,52.6113882 44.3136486,51.4104471 C44.3136486,49.4311529 42.6951351,47.8208 40.7058108,47.8208 C38.7164865,47.8208 37.097973,49.4311529 37.097973,51.4104471 C37.097973,52.6113882 36.1160811,53.5883294 34.9090541,53.5883294 C33.702027,53.5883294 32.7201351,52.6113882 32.7201351,51.4104471 C32.7201351,49.4311529 31.1016216,47.8208 29.1122973,47.8208 C27.122027,47.8208 25.5035135,49.4311529 25.5035135,51.4104471 C25.5035135,52.6113882 24.5216216,53.5883294 23.3155405,53.5883294 C22.1085135,53.5883294 21.3252703,55.0000941 23.3155405,55.0000941 C25.3048649,55.0000941 26.9224324,53.3897412 26.9224324,51.4104471 C26.9224324,50.2095059 27.9052703,49.2325647 29.1122973,49.2325647 C30.3193243,49.2325647 31.3012162,50.2095059 31.3012162,51.4104471 C31.3012162,53.3897412 32.9197297,55.0000941 34.9090541,55.0000941 C36.8983784,55.0000941 38.5168919,53.3897412 38.5168919,51.4104471 C38.5168919,50.2095059 39.4987838,49.2325647 40.7058108,49.2325647 C41.9128378,49.2325647 42.8947297,50.2095059 42.8947297,51.4104471 C42.8947297,53.3897412 44.5132432,55.0000941 46.5025676,55.0000941 C48.4918919,55.0000941 50.1104054,53.3897412 50.1104054,51.4104471 C50.1104054,50.2095059 51.0922973,49.2325647 52.2993243,49.2325647 C53.5063514,49.2325647 54.4882432,50.2095059 54.4882432,51.4104471 C54.4882432,53.3897412 56.1067568,55.0000941 58.0960811,55.0000941 C60.0854054,55.0000941 61.7039189,53.3897412 61.7039189,51.4104471 C61.7039189,50.2095059 62.6858108,49.2325647 63.8928378,49.2325647 C65.0998649,49.2325647 66.0817568,50.2095059 66.0817568,51.4104471 C66.0817568,51.8000941 66.3995946,52.1163294 66.7912162,52.1163294 C67.1837838,52.1163294 67.5006757,51.8000941 67.5006757,51.4104471 C67.5006757,49.4311529 65.8831081,47.8208 63.8928378,47.8208 C61.9035135,47.8208 60.285,49.4311529 60.285,51.4104471 Z" id="Fill-3" fill="#F14A83" sketch:type="MSShapeGroup" mask="url(#mask-4)"></path>
                </g>
            </g>
        </g>
    </g>
</svg>