<?xml version="1.0" encoding="utf-8"?>
<!-- Generator: Adobe Illustrator 19.1.0, SVG Export Plug-In . SVG Version: 6.00 Build 0)  -->
<svg version="1.1" id="Layer_1" xmlns="http://www.w3.org/2000/svg" xmlns:xlink="http://www.w3.org/1999/xlink" x="0px" y="0px"
	 viewBox="-572 819.8 23 23" style="enable-background:new -572 819.8 23 23;" xml:space="preserve">
<style type="text/css">
	.st0{fill:#375874;}
</style>
<path class="st0" d="M-560.2,842.8c-6.3,0.2-11.6-4.8-11.8-11.2c-0.2-6.3,4.8-11.6,11.2-11.8c6.3-0.2,11.6,4.8,11.8,11.2
	C-548.8,837.4-553.9,842.7-560.2,842.8z M-560.8,820.9c-5.8,0.2-10.3,5-10.2,10.7s5,10.3,10.7,10.2c5.8-0.2,10.3-5,10.2-10.7
	C-550.3,825.3-555.1,820.7-560.8,820.9z M-560.2,828v1.1l2.5-0.1l-0.3,2.2l-2.2,0.1l0.2,6.6l-2.2,0.1l-0.2-6.6h-1.3l-0.1-2.2h1.3
	v-1.3c0-1.8,0.4-3.1,2.4-3.2l2.3-0.1l0.1,2.2h-1.6C-560,826.9-560.2,827.4-560.2,828z"/>
</svg>
