<?xml version="1.0" encoding="UTF-8" standalone="no"?>
<svg width="117px" height="116px" viewBox="0 0 117 116" version="1.1" xmlns="http://www.w3.org/2000/svg" xmlns:xlink="http://www.w3.org/1999/xlink" xmlns:sketch="http://www.bohemiancoding.com/sketch/ns">
    <!-- Generator: Sketch 3.5.2 (25235) - http://www.bohemiancoding.com/sketch -->
    <title>Group 10</title>
    <desc>Created with Sketch.</desc>
    <defs></defs>
    <g id="Page-1" stroke="none" stroke-width="1" fill="none" fill-rule="evenodd" sketch:type="MSPage">
        <g id="undirsida" sketch:type="MSArtboardGroup" transform="translate(-291.000000, -2655.000000)">
            <g id="Group-10" sketch:type="MSLayerGroup" transform="translate(292.000000, 2656.000000)">
                <g id="Group-9" sketch:type="MSShapeGroup">
                    <circle id="Oval-5" stroke="#375874" stroke-width="2" cx="57.4210526" cy="57" r="57"></circle>
                    <path d="M87.135504,46.0061948 L87.135504,84.8883605 L27.4218746,84.8883605 L27.4218746,45.1842138 L27.4210526,41.6176384 L57.2786893,26 L87.135504,41.6176384 L87.135504,46.0061948 L87.135504,46.0061948 Z" id="Page-1" stroke="#F14A83" stroke-width="1.3"></path>
                </g>
                <path d="M48.1710526,66.106 C47.7570526,66.106 47.4210526,66.442 47.4210526,66.856 C47.4210526,67.27 47.7570526,67.606 48.1710526,67.606 C50.6720526,67.606 52.7070526,65.571 52.7070526,63.07 C52.7070526,61.632 52.0140526,60.265 50.8380526,59.401 L50.7200526,59.32 C50.6890526,59.298 50.6550526,59.278 50.6210526,59.262 C50.5580526,59.231 50.4950526,59.197 50.4320526,59.16 C49.5000526,58.618 48.9210526,57.611 48.9210526,56.535 C48.9210526,54.861 50.2830526,53.5 51.9570526,53.5 C52.3710526,53.5 52.7070526,53.164 52.7070526,52.75 C52.7070526,52.335 52.3710526,52 51.9570526,52 C49.4560526,52 47.4210526,54.034 47.4210526,56.535 C47.4210526,58.144 48.2850526,59.646 49.6740526,60.455 C49.7510526,60.5 49.8300526,60.543 49.9100526,60.583 L49.9650526,60.622 C50.7430526,61.192 51.2070526,62.108 51.2070526,63.07 C51.2070526,64.744 49.8450526,66.106 48.1710526,66.106" id="Fill-3" fill="#F14A83" sketch:type="MSShapeGroup"></path>
                <path d="M55.1710526,62.106 C54.7570526,62.106 54.4210526,62.442 54.4210526,62.856 C54.4210526,63.27 54.7570526,63.606 55.1710526,63.606 C57.6720526,63.606 59.7070526,61.571 59.7070526,59.07 C59.7070526,57.632 59.0140526,56.265 57.8350526,55.399 L57.7170526,55.318 C57.6880526,55.298 57.6580526,55.28 57.6260526,55.265 C57.5600526,55.231 57.4940526,55.196 57.4320526,55.161 C56.5000526,54.617 55.9210526,53.611 55.9210526,52.535 C55.9210526,50.861 57.2830526,49.5 58.9570526,49.5 C59.3710526,49.5 59.7070526,49.164 59.7070526,48.75 C59.7070526,48.335 59.3710526,48 58.9570526,48 C56.4560526,48 54.4210526,50.034 54.4210526,52.535 C54.4210526,54.143 55.2850526,55.646 56.6790526,56.458 C56.7540526,56.502 56.8320526,56.544 56.9100526,56.584 L56.9660526,56.622 C57.7430526,57.192 58.2070526,58.108 58.2070526,59.07 C58.2070526,60.744 56.8450526,62.106 55.1710526,62.106" id="Fill-5" fill="#F14A83" sketch:type="MSShapeGroup"></path>
                <path d="M63.1710526,68.107 C62.7570526,68.107 62.4210526,68.443 62.4210526,68.857 C62.4210526,69.271 62.7570526,69.607 63.1710526,69.607 C65.6720526,69.607 67.7070526,67.572 67.7070526,65.071 C67.7070526,63.633 67.0140526,62.266 65.8370526,61.401 L65.7190526,61.32 C65.6890526,61.299 65.6560526,61.28 65.6230526,61.263 C65.5580526,61.232 65.4950526,61.198 65.4320526,61.161 C64.5000526,60.618 63.9210526,59.612 63.9210526,58.536 C63.9210526,56.862 65.2830526,55.5 66.9570526,55.5 C67.3710526,55.5 67.7070526,55.164 67.7070526,54.75 C67.7070526,54.336 67.3710526,54 66.9570526,54 C64.4560526,54 62.4210526,56.035 62.4210526,58.536 C62.4210526,60.144 63.2850526,61.647 64.6750526,62.457 C64.7530526,62.502 64.8310526,62.544 64.9100526,62.584 L64.9660526,62.623 C65.7430526,63.193 66.2070526,64.109 66.2070526,65.071 C66.2070526,66.745 64.8450526,68.107 63.1710526,68.107" id="Fill-7" fill="#F14A83" sketch:type="MSShapeGroup"></path>
                <path d="M46.4210526,85.402 L46.4210526,73 L68.0340526,73 L68.0340526,85.402" id="Page-1" stroke="#F14A83" stroke-width="1.3" sketch:type="MSShapeGroup"></path>
            </g>
        </g>
    </g>
</svg>