<?xml version="1.0" encoding="UTF-8" standalone="no"?>
<svg width="116px" height="116px" viewBox="0 0 116 116" version="1.1" xmlns="http://www.w3.org/2000/svg" xmlns:xlink="http://www.w3.org/1999/xlink" xmlns:sketch="http://www.bohemiancoding.com/sketch/ns">
    <!-- Generator: Sketch 3.5.2 (25235) - http://www.bohemiancoding.com/sketch -->
    <title>Group 5</title>
    <desc>Created with Sketch.</desc>
    <defs>
        <path id="path-1" d="M22,6.75105882 L91.2905405,6.75105882 L91.2905405,86 L22,86 L22,6.75105882 Z"></path>
    </defs>
    <g id="Page-1" stroke="none" stroke-width="1" fill="none" fill-rule="evenodd" sketch:type="MSPage">
        <g id="ICON" sketch:type="MSArtboardGroup" transform="translate(-491.000000, -924.000000)">
            <g id="Group-5" sketch:type="MSLayerGroup" transform="translate(492.000000, 925.000000)">
                <circle id="Oval-5-Copy-3" stroke="#375874" stroke-width="2" sketch:type="MSShapeGroup" cx="57" cy="57" r="57"></circle>
                <mask id="mask-2" sketch:name="Clip 2" fill="white">
                    <use xlink:href="#path-1"></use>
                </mask>
                <g id="Clip-2"></g>
                <path d="M82.7795946,65 C80.7902703,65 79.1717568,66.6103529 79.1717568,68.5896471 C79.1717568,69.7905882 78.1898649,70.7675294 76.9828378,70.7675294 C75.7758108,70.7675294 74.7939189,69.7905882 74.7939189,68.5896471 C74.7939189,66.6103529 73.1754054,65 71.1860811,65 C69.1967568,65 67.5782432,66.6103529 67.5782432,68.5896471 C67.5782432,69.7905882 66.5963514,70.7675294 65.3893243,70.7675294 C64.1822973,70.7675294 63.2004054,69.7905882 63.2004054,68.5896471 C63.2004054,66.6103529 61.5818919,65 59.5925676,65 C57.6032432,65 55.9847297,66.6103529 55.9847297,68.5896471 C55.9847297,69.7905882 55.0028378,70.7675294 53.7958108,70.7675294 C52.5887838,70.7675294 51.6068919,69.7905882 51.6068919,68.5896471 C51.6068919,66.6103529 49.9883784,65 47.9990541,65 C46.0087838,65 44.3902703,66.6103529 44.3902703,68.5896471 C44.3902703,69.7905882 43.4083784,70.7675294 42.2022973,70.7675294 C40.9952703,70.7675294 40.0133784,69.7905882 40.0133784,68.5896471 C40.0133784,66.6103529 38.3948649,65 36.4055405,65 C34.4162162,65 32.7977027,66.6103529 32.7977027,68.5896471 C32.7977027,69.7905882 31.8158108,70.7675294 30.6087838,70.7675294 C29.4008108,70.7675294 28.4189189,69.7905882 28.4189189,68.5896471 C28.4189189,68.2 28.1010811,67.8837647 27.7094595,67.8837647 C27.3178378,67.8837647 27,68.2 27,68.5896471 C27,70.5689412 28.6185135,72.1792941 30.6087838,72.1792941 C32.5981081,72.1792941 34.2166216,70.5689412 34.2166216,68.5896471 C34.2166216,67.3887059 35.1985135,66.4117647 36.4055405,66.4117647 C37.6116216,66.4117647 38.5944595,67.3887059 38.5944595,68.5896471 C38.5944595,70.5689412 40.212027,72.1792941 42.2022973,72.1792941 C44.1916216,72.1792941 45.8091892,70.5689412 45.8091892,68.5896471 C45.8091892,67.3887059 46.792027,66.4117647 47.9990541,66.4117647 C49.2060811,66.4117647 50.187973,67.3887059 50.187973,68.5896471 C50.187973,70.5689412 51.8064865,72.1792941 53.7958108,72.1792941 C55.7851351,72.1792941 57.4036486,70.5689412 57.4036486,68.5896471 C57.4036486,67.3887059 58.3855405,66.4117647 59.5925676,66.4117647 C60.7995946,66.4117647 61.7814865,67.3887059 61.7814865,68.5896471 C61.7814865,70.5689412 63.4,72.1792941 65.3893243,72.1792941 C67.3786486,72.1792941 68.9971622,70.5689412 68.9971622,68.5896471 C68.9971622,67.3887059 69.9790541,66.4117647 71.1860811,66.4117647 C72.3931081,66.4117647 73.375,67.3887059 73.375,68.5896471 C73.375,70.5689412 74.9935135,72.1792941 76.9828378,72.1792941 C78.9721622,72.1792941 80.5906757,70.5689412 80.5906757,68.5896471 C80.5906757,67.3887059 81.5725676,66.4117647 82.7795946,66.4117647 C83.9866216,66.4117647 84.9685135,67.3887059 84.9685135,68.5896471 C84.9685135,68.9792941 85.2863514,69.2955294 85.677973,69.2955294 C86.0705405,69.2955294 86.3874324,68.9792941 86.3874324,68.5896471 C86.3874324,66.6103529 84.7698649,65 82.7795946,65" id="Fill-3" fill="#F14A83" sketch:type="MSShapeGroup" mask="url(#mask-2)"></path>
                <path d="M86.7144514,43.0061948 L86.7144514,81.8883605 L27.000822,81.8883605 L27.000822,42.1842138 L27,38.6176384 L56.8576367,23 L86.7144514,38.6176384 L86.7144514,43.0061948 L86.7144514,43.0061948 Z" id="Page-1-Copy-3" stroke="#F14A83" stroke-width="1.3" sketch:type="MSShapeGroup" mask="url(#mask-2)"></path>
            </g>
        </g>
    </g>
</svg>