<?xml version="1.0" encoding="UTF-8" standalone="no"?>
<svg width="462px" height="90px" viewBox="0 0 462 90" version="1.1" xmlns="http://www.w3.org/2000/svg" xmlns:xlink="http://www.w3.org/1999/xlink" xmlns:sketch="http://www.bohemiancoding.com/sketch/ns">
    <!-- Generator: Sketch 3.5.2 (25235) - http://www.bohemiancoding.com/sketch -->
    <title>Group 5 Copy</title>
    <desc>Created with Sketch.</desc>
    <defs></defs>
    <g id="Page-1" stroke="none" stroke-width="1" fill="none" fill-rule="evenodd" sketch:type="MSPage">
        <g id="moodboard" sketch:type="MSArtboardGroup" transform="translate(-469.000000, -239.000000)" fill="#375874">
            <g id="Group-5-Copy" sketch:type="MSLayerGroup" transform="translate(469.000000, 239.000000)">
                <g id="Group" sketch:type="MSShapeGroup">
                    <g id="Page-1">
                        <path d="M142.626076,81.5970706 C138.611126,85.3696588 134.212589,88.1194235 128.772433,88.8891882 C121.44719,89.9268353 114.916672,88.2570706 109.424594,83.2276588 C107.887067,81.8204824 106.940814,81.7040118 105.270833,83.1948353 C96.2300436,91.2598941 83.3735161,91.3075412 74.0911307,83.3070706 C72.4624748,81.9041294 71.5925161,81.8278941 69.9299518,83.2234235 C60.3402729,91.2768353 48.420461,91.3086 38.7364748,83.2858941 C36.9298005,81.7887176 35.966594,82.0280118 34.2881353,83.4531882 C24.3201674,91.9163647 10.4061261,91.0375412 1.52958028,81.5187176 C0.961616972,80.9098941 0.381997706,80.2354235 0.0821215596,79.4826 C-0.10331422,79.0156588 0.0365573394,78.1156588 0.381997706,77.8266 C0.72637844,77.5364824 1.6620344,77.5386 2.06363532,77.8128353 C2.8265711,78.3348353 3.3913555,79.1458941 4.04302982,79.8320118 C12.248828,88.4730706 25.9774335,88.4381294 33.8685206,79.5334235 C36.0195757,77.1066 37.1862317,77.2993059 39.2853647,79.5323647 C47.7931583,88.5853059 60.5733922,88.5863647 69.2390711,79.5196588 C71.3678739,77.2929529 72.5260528,77.1987176 74.6718096,79.5344824 C82.9856904,88.5853059 96.1643463,88.5853059 104.632933,79.5355412 C106.756438,77.2654235 107.872232,77.1468353 110.025406,79.5037765 C118.381672,88.6562471 131.867622,88.5450706 140.192099,79.3280118 C142.041158,77.2802471 143.238544,76.9382471 145.127869,79.2189529 C148.658567,83.4796588 153.35592,85.6322471 158.852236,86.2580118 C159.819681,86.3681294 160.685401,87.3655412 161.597745,87.9521294 C160.537053,88.3449529 159.453048,89.1242471 158.417787,89.0649529 C153.302938,88.7737765 148.82175,86.8001294 144.944553,83.4489529 C144.243076,82.8422471 143.496034,82.2895412 142.626076,81.5970706" id="Fill-1"></path>
                        <path d="M460.003439,81.5970706 C455.98849,85.3696588 451.589953,88.1194235 446.149797,88.8891882 C438.824554,89.9268353 432.294036,88.2570706 426.801958,83.2276588 C425.26443,81.8204824 424.318178,81.7040118 422.648196,83.1948353 C413.607407,91.2598941 400.75088,91.3075412 391.468494,83.3070706 C389.839839,81.9041294 388.96988,81.8278941 387.307316,83.2234235 C377.717637,91.2768353 365.797825,91.3086 356.113839,83.2858941 C354.307164,81.7887176 353.343958,82.0280118 351.665499,83.4531882 C341.697531,91.9163647 327.78349,91.0375412 318.906944,81.5187176 C318.338981,80.9098941 317.759361,80.2354235 317.459485,79.4826 C317.27405,79.0156588 317.413921,78.1156588 317.759361,77.8266 C318.103742,77.5364824 319.039398,77.5386 319.440999,77.8128353 C320.203935,78.3348353 320.768719,79.1458941 321.420394,79.8320118 C329.626192,88.4730706 343.354797,88.4381294 351.245884,79.5334235 C353.396939,77.1066 354.563595,77.2993059 356.662728,79.5323647 C365.170522,88.5853059 377.950756,88.5863647 386.616435,79.5196588 C388.745238,77.2929529 389.903417,77.1987176 392.049173,79.5344824 C400.363054,88.5853059 413.54171,88.5853059 422.010297,79.5355412 C424.133802,77.2654235 425.249595,77.1468353 427.40277,79.5037765 C435.759036,88.6562471 449.244985,88.5450706 457.569462,79.3280118 C458.825128,77.7577765 461.067311,77.0388353 461.236852,78.6027176 C461.401095,80.1189529 460.003439,81.5970706 460.003439,81.5970706" id="Fill-4"></path>
                        <path d="M176.515577,81.5970706 C180.530527,85.3696588 184.929063,88.1194235 190.369219,88.8891882 C197.694462,89.9268353 204.224981,88.2570706 209.717059,83.2276588 C211.254586,81.8204824 212.200839,81.7040118 213.87082,83.1948353 C222.911609,91.2598941 235.768137,91.3075412 245.050522,83.3070706 C246.679178,81.9041294 247.549137,81.8278941 249.211701,83.2234235 C258.80138,91.2768353 270.721192,91.3086 280.405178,83.2858941 C282.211852,81.7887176 283.175059,82.0280118 284.853517,83.4531882 C294.821485,91.9163647 308.735527,91.0375412 317.612072,81.5187176 C318.180036,80.9098941 318.759655,80.2354235 319.059531,79.4826 C319.244967,79.0156588 319.104036,78.1156588 318.759655,77.8266 C318.415274,77.5364824 317.479618,77.5386 317.078017,77.8128353 C316.315082,78.3348353 315.750297,79.1458941 315.098623,79.8320118 C306.892825,88.4730706 293.164219,88.4381294 285.273132,79.5334235 C283.122077,77.1066 281.955421,77.2993059 279.856288,79.5323647 C271.348494,88.5853059 258.568261,88.5863647 249.902582,79.5196588 C247.773779,77.2929529 246.6156,77.1987176 244.469843,79.5344824 C236.155962,88.5853059 222.977306,88.5853059 214.508719,79.5355412 C212.385215,77.2654235 211.269421,77.1468353 209.116247,79.5037765 C200.759981,88.6562471 187.274031,88.5450706 178.949554,79.3280118 C177.100494,77.2802471 175.903109,76.9382471 174.013783,79.2189529 C170.483086,83.4796588 165.785733,85.6322471 160.289417,86.2580118 C159.321972,86.3681294 158.456251,87.3655412 157.543907,87.9521294 C158.6046,88.3449529 159.688605,89.1242471 160.723866,89.0649529 C165.838715,88.7737765 170.319903,86.8001294 174.1971,83.4489529 C174.898577,82.8422471 175.645618,82.2895412 176.515577,81.5970706" id="Fill-6"></path>
                        <path d="M20.5653578,32.4729529 C18.9960413,31.2457765 17.3748028,30.0567176 15.759922,28.9460118 C14.3813394,27.9581294 13.0144128,26.9480118 11.6983486,25.9431882 C10.4172523,24.9669529 9.27284862,23.8827176 8.29586697,22.7201294 C7.32630275,21.5660118 6.53369725,20.2869529 5.93924312,18.9178941 C5.35538532,17.5700118 5.05974771,15.9944824 5.05974771,14.2347176 C5.05974771,13.0488353 5.14027982,12.0270706 5.30134404,11.1980118 C5.46240826,10.3657765 5.73473394,9.45307059 6.11090367,8.48636471 C6.47541743,7.54930588 7.03172477,6.67789412 7.76711009,5.89118824 C9.44027064,4.0626 11.9293486,3.13507059 15.162289,3.13507059 C16.8153165,3.13507059 18.2415826,3.37542353 19.3987018,3.84871765 C20.5452248,4.31777647 21.5211468,5.00283529 22.2967982,5.8806 C22.9675459,6.65354118 23.4517982,7.55671765 23.7357798,8.56365882 C24.0324771,9.61612941 24.2391055,10.6431882 24.3471881,11.6151882 C24.4552706,12.5882471 24.4817615,13.7434235 24.4287798,15.0489529 L24.4065275,15.6006 L27.2442248,15.5984824 L27.246344,15.0711882 C27.246344,15.0108353 27.258,14.6116588 27.2876697,13.8778941 C27.3152202,13.1081294 27.2728349,12.1551882 27.1594541,11.0423647 C27.0428945,9.92636471 26.7981193,8.73942353 26.4272477,7.51330588 C26.0447202,6.25012941 25.4057615,5.07695294 24.5230872,4.01812941 C22.4175963,1.56483529 19.268367,0.319658824 15.162289,0.319658824 C11.119789,0.319658824 7.91863761,1.55954118 5.6626789,3.98848235 C4.66344495,4.98589412 3.92805963,6.09024706 3.4777156,7.26871765 C3.04008716,8.41012941 2.72219725,9.48165882 2.5314633,10.4515412 C2.33966972,11.4235412 2.24218349,12.2886 2.24218349,13.0213059 L2.24218349,14.3183647 C2.24218349,18.0549529 3.52222018,21.4897765 6.05580275,24.5370706 C7.19278899,25.8447176 8.47388532,27.0380118 9.86094495,28.0830706 C11.2162156,29.1069529 12.6710917,30.1657765 14.1842477,31.2288353 C15.7429679,32.3427176 17.2879128,33.4798941 18.7766972,34.6086 C20.2421697,35.7203647 21.578367,37.0004824 22.7492615,38.4140118 C23.9074404,39.8158941 24.8515734,41.4411882 25.5519908,43.2454235 C26.250289,45.0464824 26.6042064,47.1906 26.6042064,49.6216588 C26.6042064,51.7086 26.2693624,53.4916588 25.6070917,54.9200118 C24.9469404,56.3441294 24.067445,57.5046 22.9929771,58.3696588 C21.9079128,59.2421294 20.6734404,59.8858941 19.3234679,60.2818941 C16.8471055,61.0103647 14.3951147,61.1024824 11.5129128,60.4407176 C10.2583073,60.1548353 9.07787615,59.5703647 8.00234862,58.7042471 C6.92894037,57.8423647 6.0218945,56.5993059 5.3066422,55.0089529 C4.58715138,53.4122471 4.22263761,51.2903647 4.22263761,48.7015412 L4.22263761,48.1721294 L1.40507339,48.1721294 L1.40507339,48.7015412 C1.40507339,51.0944824 1.76640826,53.3751882 2.47954128,55.4801294 C3.20327064,57.6231882 4.31058716,59.3617765 5.77076147,60.6429529 L5.7781789,60.6503647 C7.28815596,61.9273059 8.92846789,62.7680118 10.6535505,63.1470706 C12.3298899,63.5155412 13.8462248,63.7029529 15.162289,63.7029529 C18.953656,63.7029529 22.1654037,62.6494235 24.7106422,60.5688353 C27.8365596,57.9662471 29.4217706,54.2826 29.4217706,49.6216588 C29.4217706,44.7224824 27.9128532,40.3887176 24.9331651,36.7357765 C23.6266376,35.1538941 22.1569266,33.7202471 20.5653578,32.4729529" id="Fill-8"></path>
                        <path d="M65.7011683,48.9519529 C65.7011683,49.5014824 65.6863335,50.0361882 65.6609023,50.5550118 C65.6333518,51.0600706 65.5655353,51.5841882 65.4585124,52.1220706 C65.2974482,53.0284235 65.0113472,53.9908941 64.6065674,54.9851294 C64.209205,55.9603059 63.631705,56.8804235 62.9047968,57.7073647 C61.1701775,59.5401882 58.6980537,60.4687765 55.5573014,60.4687765 C52.4758885,60.4687765 50.089595,59.5698353 48.4704757,57.8026588 C47.6768106,56.9090118 47.0728197,55.9359529 46.6775766,54.9099529 C46.2749161,53.8701882 46.0184849,52.8590118 45.9040445,51.8594824 C45.8002005,51.3438353 45.7472188,50.8027765 45.7472188,50.2490118 L45.7472188,0.738423529 L42.9296546,0.738423529 L42.9296546,49.7047765 C42.9296546,50.5116 43.0154849,51.4814824 43.1850261,52.5879529 C43.3577463,53.7113647 43.6915307,54.9163059 44.1747234,56.1699529 C44.669572,57.4553647 45.4219115,58.6391294 46.4073702,59.6852471 C48.6145858,62.0739529 51.6928197,63.2852471 55.5573014,63.2852471 C59.5319849,63.2852471 62.667439,62.0739529 64.8714757,59.6884235 C65.857994,58.6380706 66.6082142,57.4860706 67.1030628,56.2610118 C67.5851959,55.0687765 67.9454711,53.9273647 68.1743518,52.8706588 C68.4032326,51.8086588 68.5187326,50.8843059 68.5187326,50.1230118 L68.5187326,0.738423529 L65.7011683,0.738423529 L65.7011683,48.9519529 Z" id="Fill-10"></path>
                        <path d="M109.236191,54.8613529 C109.21182,54.8020588 109.185329,54.7417059 109.159898,54.6813529 L85.8341959,1.07311765 L85.1570904,1.07311765 L85.1094069,0.858176471 L85.1104665,1.07311765 L83.5326729,1.07311765 L83.5326729,62.9507647 L86.3523564,62.9507647 L86.1934115,8.78982353 C86.3830858,9.243 86.5165995,9.56488235 86.5950124,9.75970588 L109.663223,62.9507647 L112.053756,62.9507647 L112.053756,1.07311765 L109.236191,1.07311765 L109.236191,54.8613529 Z" id="Fill-12"></path>
                        <path d="M139.150056,60.1347176 L128.880092,60.1347176 L128.880092,3.88789412 L139.150056,3.88789412 C140.361216,3.88789412 141.5639,4.11554118 142.726317,4.56448235 C143.880257,5.00918824 144.933533,5.68895294 145.855413,6.5826 C146.774115,7.47624706 147.520097,8.65048235 148.075344,10.0756588 C148.634831,11.5156588 148.918812,13.2235412 148.918812,15.1548353 L148.918812,48.8688353 C148.918812,50.8541294 148.634831,52.5757765 148.076404,53.9861294 C147.520097,55.3890706 146.770936,56.5664824 145.850115,57.4876588 C144.932473,58.4035412 143.885556,59.0801294 142.736913,59.4973059 C141.574496,59.9197765 140.366514,60.1347176 139.150056,60.1347176 M143.691643,1.90154118 C142.241005,1.35201176 140.713014,1.07248235 139.150056,1.07248235 L126.061468,1.07248235 L126.061468,62.9501294 L139.150056,62.9501294 C140.716193,62.9501294 142.244184,62.6716588 143.691643,62.1210706 C145.145459,61.5694235 146.444569,60.7583647 147.541289,59.7196588 C150.324945,57.2282471 151.736377,53.5784824 151.736377,48.8688353 L151.736377,15.1548353 C151.736377,10.5616588 150.328124,6.91295294 147.551886,4.31354118 C146.447748,3.26742353 145.148638,2.45636471 143.691643,1.90154118" id="Fill-14"></path>
                        <path d="M170.824182,1.0728 L168.006618,1.0728 L168.006618,62.9504471 L193.261911,62.9504471 L193.261911,60.3023294 L170.824182,60.3023294 L170.824182,1.0728 Z" id="Fill-16"></path>
                        <path d="M225.664324,41.8136824 L213.130984,41.8136824 L219.511035,9.02615294 L225.664324,41.8136824 Z M220.624709,1.07227059 L218.333783,1.07227059 L205.813159,62.9499176 L208.731388,62.9499176 L212.665806,44.6290941 L226.373218,44.6290941 L230.141273,62.9499176 L233.060562,62.9499176 L220.710539,1.49791765 L220.624709,1.07227059 Z" id="Fill-18"></path>
                        <path d="M268.637423,48.9519529 C268.637423,49.5014824 268.622589,50.0361882 268.597157,50.5550118 C268.569607,51.0600706 268.50179,51.5841882 268.394767,52.1220706 C268.233703,53.0284235 267.947602,53.9908941 267.542822,54.9851294 C267.14546,55.9603059 266.56796,56.8804235 265.841052,57.7073647 C264.106433,59.5401882 261.634309,60.4687765 258.493556,60.4687765 C255.412144,60.4687765 253.02585,59.5698353 251.406731,57.8026588 C250.613066,56.9090118 250.009075,55.9359529 249.613832,54.9099529 C249.211171,53.8701882 248.95474,52.8590118 248.8403,51.8594824 C248.736456,51.3438353 248.683474,50.8027765 248.683474,50.2490118 L248.683474,0.738423529 L245.86591,0.738423529 L245.86591,49.7047765 C245.86591,50.5116 245.95174,51.4814824 246.121281,52.5879529 C246.294001,53.7113647 246.627786,54.9163059 247.110978,56.1699529 C247.605827,57.4553647 248.358167,58.6391294 249.343625,59.6852471 C251.550841,62.0739529 254.629075,63.2852471 258.493556,63.2852471 C262.46824,63.2852471 265.603694,62.0739529 267.807731,59.6884235 C268.794249,58.6380706 269.544469,57.4860706 270.039318,56.2610118 C270.521451,55.0687765 270.881726,53.9273647 271.110607,52.8706588 C271.339488,51.8086588 271.454988,50.8843059 271.454988,50.1230118 L271.454988,0.738423529 L268.637423,0.738423529 L268.637423,48.9519529 Z" id="Fill-20"></path>
                        <path d="M300.115942,36.3380824 L309.24468,36.4259647 L309.325212,49.3711412 C309.325212,50.6152588 309.243621,51.6952588 309.082556,52.5804353 C308.922552,53.4645529 308.635391,54.4302 308.231671,55.4509059 C307.840667,56.4430235 307.243033,57.3716118 306.454667,58.2102 C304.727465,60.0419647 302.264878,60.9716118 299.13896,60.9716118 C296.126423,60.9716118 293.750726,60.0430235 292.074387,58.2070235 C291.288139,57.3673765 290.691566,56.4123176 290.299501,55.3672588 C289.895781,54.2904353 289.624515,53.2718471 289.492061,52.3369059 C289.356428,51.3934941 289.286492,50.2203176 289.286492,48.7665529 L289.286492,14.2510235 C289.286492,12.3176118 289.570474,10.6213765 290.1289,9.20996471 C290.686267,7.80384706 291.434368,6.62431765 292.356249,5.70208235 C293.268593,4.78831765 294.329286,4.11067059 295.507598,3.69137647 C297.826075,2.86443529 300.239919,2.79031765 302.621974,3.76549412 C303.773795,4.23667059 304.823891,4.96831765 305.744712,5.93925882 C306.668712,6.91761176 307.434827,8.18290588 308.020804,9.69808235 C308.6089,11.2206706 308.906657,13.0566706 308.906657,15.1552588 L308.906657,15.6846706 L311.724222,15.6846706 L311.724222,15.1552588 C311.724222,12.5907882 311.345933,10.3429059 310.597832,8.47514118 C309.85079,6.60631765 308.854735,5.02972941 307.639336,3.78772941 C306.417579,2.54149412 305.043235,1.62667059 303.552332,1.06867059 C300.482575,-0.0790941176 297.40646,-0.00815294118 294.549689,1.10996471 C293.072561,1.68914118 291.764974,2.4822 290.655538,3.47431765 C287.87718,6.07690588 286.468928,9.72561176 286.468928,14.3177294 L286.468928,48.7009059 C286.468928,48.8671412 286.455153,49.3340824 286.427602,50.1038471 C286.397933,50.9106706 286.469988,51.8879647 286.642708,53.0071412 C286.815428,54.1294941 287.150272,55.3344353 287.635584,56.5880824 C288.130433,57.8724353 288.914561,59.0847882 289.949822,60.1764353 C292.054254,62.5725529 295.145203,63.7870235 299.13896,63.7870235 C303.071258,63.7870235 306.216249,62.5439647 308.4934,60.0843176 C309.421639,59.0371412 310.157024,57.8883176 310.677304,56.6706706 C311.189107,55.4742 311.552561,54.3370235 311.75707,53.2898471 C311.955222,52.2659647 312.070722,51.3649059 312.101451,50.6099647 C312.129001,49.8730235 312.143836,49.4177294 312.143836,49.2462 L312.143836,33.6200824 L300.115942,33.5279647 L300.115942,36.3380824 Z" id="Fill-22"></path>
                        <path d="M342.955633,41.8136824 L330.422294,41.8136824 L336.802344,9.02615294 L342.955633,41.8136824 Z M337.916019,1.07227059 L335.625092,1.07227059 L323.104468,62.9499176 L326.022698,62.9499176 L329.957115,44.6290941 L343.664528,44.6290941 L347.432583,62.9499176 L350.351872,62.9499176 L338.001849,1.49791765 L337.916019,1.07227059 Z" id="Fill-25"></path>
                        <path d="M383.583871,29.7483882 C382.686362,31.1206235 381.512289,32.2027412 380.0945,32.9650941 C378.672472,33.7295647 376.363532,34.1170941 373.230197,34.1170941 L365.890119,34.1170941 L365.890119,3.88874118 L373.230197,3.88874118 C375.817821,3.88874118 377.998545,4.28156471 379.708793,5.05768235 C381.39255,5.82215294 382.696958,6.90003529 383.580692,8.25321176 C384.499394,9.71650588 385.239018,11.4063882 385.78049,13.2783882 C386.323022,15.1546235 386.598527,17.0658 386.598527,18.9610941 C386.598527,20.9114471 386.323022,22.8512118 385.78049,24.7274471 C385.239018,26.5994471 384.500454,28.2882706 383.583871,29.7483882 M383.101738,34.4760353 C384.203756,33.6067412 385.173321,32.5214471 385.979701,31.2561529 C387.066885,29.5969765 387.920949,27.6752118 388.516463,25.5448588 C389.114096,23.4145059 389.416091,21.2132118 389.416091,19.0034471 C389.416091,16.8476824 389.114096,14.6749765 388.516463,12.5435647 C387.920949,10.4163882 387.069004,8.46921176 385.981821,6.75285882 C384.815165,4.94756471 383.149422,3.53191765 381.030156,2.54509412 C378.929963,1.5678 376.306311,1.07227059 373.230197,1.07227059 L363.072555,1.07227059 L363.072555,62.9499176 L365.890119,62.9499176 L365.890119,36.9335647 L373.230197,36.9335647 C373.963463,36.9335647 374.655403,36.9198 375.303899,36.8912118 C375.797688,36.8700353 376.288298,36.8245059 376.766192,36.7546235 L388.203871,62.8662706 L391.203692,62.8662706 L379.496867,36.1892118 C380.912536,35.8228588 382.123697,35.2479176 383.101738,34.4760353" id="Fill-27"></path>
                        <path d="M398.151812,63.5357647 L401.639064,63.5357647 L401.639064,60.0501176 L398.151812,60.0501176 L398.151812,63.5357647 Z" id="Fill-29"></path>
                        <path d="M413.555697,62.9502353 L416.373261,62.9502353 L416.373261,1.07258824 L413.555697,1.07258824 L413.555697,62.9502353 Z" id="Fill-31"></path>
                        <path d="M454.999322,36.7356706 C453.692795,35.1537882 452.223084,33.7201412 450.631515,32.4728471 C449.061139,31.2456706 447.44096,30.0566118 445.826079,28.9469647 C444.447497,27.9580235 443.08057,26.9479059 441.764506,25.9441412 C440.48341,24.9668471 439.339006,23.8826118 438.362024,22.7200235 C437.39246,21.5659059 436.599855,20.2868471 436.0054,18.9177882 C435.421543,17.5699059 435.125905,15.9943765 435.125905,14.2346118 C435.125905,13.0487294 435.206437,12.0280235 435.367501,11.1979059 C435.528566,10.3656706 435.800891,9.45296471 436.177061,8.48625882 C436.541575,7.55025882 437.096822,6.67778824 437.833267,5.89108235 C439.506428,4.06249412 441.995506,3.13602353 445.228446,3.13602353 C446.881474,3.13602353 448.30774,3.37531765 449.464859,3.84861176 C450.611382,4.31767059 451.587304,5.00272941 452.362956,5.88049412 C453.033703,6.65343529 453.517956,7.55661176 453.801937,8.56355294 C454.098634,9.61602353 454.305263,10.6430824 454.413345,11.6150824 C454.521428,12.5881412 454.547919,13.7433176 454.493878,15.0499059 L454.472685,15.6004941 L457.310382,15.5983765 L457.312501,15.0721412 C457.312501,15.0107294 457.324157,14.6115529 457.353827,13.8777882 C457.381378,13.1090824 457.338992,12.1550824 457.225611,11.0422588 C457.109052,9.92625882 456.864277,8.73931765 456.493405,7.5132 C456.110878,6.25002353 455.471919,5.07684706 454.589244,4.01908235 C452.483754,1.56472941 449.334524,0.319552941 445.228446,0.319552941 C441.185946,0.319552941 437.984795,1.55943529 435.727777,3.98837647 C434.729602,4.98578824 433.994217,6.09014118 433.543873,7.26861176 C433.106244,8.41108235 432.788355,9.48155294 432.597621,10.4514353 C432.405827,11.4234353 432.308341,12.2884941 432.308341,13.0212 L432.308341,14.3182588 C432.308341,18.0548471 433.588378,21.4907294 436.12196,24.5369647 C437.258946,25.8446118 438.540043,27.0379059 439.927102,28.0840235 C441.282373,29.1068471 442.737249,30.1656706 444.249345,31.2287294 C445.809125,32.3426118 447.35407,33.4797882 448.841795,34.6084941 C450.308327,35.7202588 451.644524,37.0003765 452.814359,38.4139059 C453.973598,39.8157882 454.917731,41.4410824 455.618148,43.2453176 C456.316446,45.0463765 456.670364,47.1915529 456.670364,49.6215529 C456.670364,51.7095529 456.33552,53.4915529 455.673249,54.9199059 C455.013098,56.3450824 454.133602,57.5044941 453.059134,58.3695529 C451.97407,59.2420235 450.738538,59.8857882 449.389625,60.2817882 C446.913263,61.0102588 444.460212,61.1023765 441.57907,60.4406118 C440.324465,60.1547294 439.144033,59.5702588 438.067446,58.7041412 C436.995098,57.8422588 436.088052,56.5992 435.3728,55.0088471 C434.653309,53.4121412 434.288795,51.2902588 434.288795,48.7014353 L434.288795,48.1720235 L431.471231,48.1720235 L431.471231,48.7014353 C431.471231,51.0943765 431.832566,53.3750824 432.545699,55.4800235 C433.269428,57.6241412 434.376744,59.3616706 435.836919,60.6439059 L435.844336,60.6502588 C437.354313,61.9272 438.994625,62.7679059 440.718648,63.1469647 C442.394988,63.5154353 443.912382,63.7028471 445.228446,63.7028471 C449.019813,63.7028471 452.231561,62.6493176 454.7768,60.5687294 C457.902717,57.9661412 459.487928,54.2824941 459.487928,49.6215529 C459.487928,44.7223765 457.979011,40.3886118 454.999322,36.7356706" id="Fill-32"></path>
                    </g>
                </g>
            </g>
        </g>
    </g>
</svg>