<?xml version="1.0" encoding="UTF-8" standalone="no"?>
<svg width="294px" height="58px" viewBox="0 0 294 58" version="1.1" xmlns="http://www.w3.org/2000/svg" xmlns:xlink="http://www.w3.org/1999/xlink" xmlns:sketch="http://www.bohemiancoding.com/sketch/ns">
    <!-- Generator: Sketch 3.5.2 (25235) - http://www.bohemiancoding.com/sketch -->
    <title>Page 1</title>
    <desc>Created with Sketch.</desc>
    <defs>
        <path id="path-1" d="M0,0.613611076 L293.410524,0.613611076 L293.410524,57.9521572 L0,57.9521572"></path>
        <path id="path-3" d="M0,0.613611076 L293.410524,0.613611076 L293.410524,57.9521572 L0,57.9521572"></path>
        <path id="path-5" d="M0,0.613611076 L293.410524,0.613611076 L293.410524,57.9521572 L0,57.9521572"></path>
        <path id="path-7" d="M0,0.613611076 L293.410524,0.613611076 L293.410524,57.9521572 L245.596434,57.9521572 L115.833391,57.9521572 L34.6007709,57.9521572 L0,57.9521572 L0,0.613611076 Z"></path>
    </defs>
    <g id="Page-1" stroke="none" stroke-width="1" fill="none" fill-rule="evenodd" sketch:type="MSPage">
        <g id="Forsida_minni_cards" sketch:type="MSArtboardGroup" transform="translate(-240.000000, -225.000000)">
            <g id="Group-19" sketch:type="MSLayerGroup" transform="translate(-22.000000, -30.000000)">
                <g id="Group-2" transform="translate(262.000000, 255.000000)">
                    <g id="Page-1">
                        <g id="Group-3">
                            <mask id="mask-2" sketch:name="Clip 2" fill="white">
                                <use xlink:href="#path-1"></use>
                            </mask>
                            <g id="Clip-2"></g>
                            <path d="M90.7271879,53.003043 C88.1732014,55.4322611 85.3752076,57.2028699 81.9146199,57.6985313 C77.2548919,58.3666856 73.1007037,57.2915026 69.6070873,54.0529997 C68.6290365,53.1469007 68.0271073,53.0719038 66.9647998,54.0318642 C61.2137802,59.2250593 53.035496,59.2557399 47.1307923,54.104134 C46.0947729,53.2007621 45.5413754,53.1516732 44.4837864,54.0502726 C38.3836073,59.2359679 30.8011859,59.2564216 24.6410161,54.0904982 C23.4917558,53.126447 22.8790417,53.2805315 21.8113419,54.198221 C15.4705259,59.6477692 6.61953684,59.0818834 0.972995411,52.9525905 C0.611703038,52.5605612 0.242996083,52.1262609 0.0522391024,51.6415082 C-0.0657201611,51.3408388 0.0232548262,50.7613172 0.242996083,50.5751885 C0.462063287,50.388378 1.05725203,50.3897416 1.31271809,50.5663252 C1.7980362,50.9024477 2.15730642,51.4246989 2.57184897,51.8664989 C7.79171489,57.4305878 16.5247447,57.4080887 21.5444169,51.6742341 C22.9127444,50.1115712 23.6548767,50.235657 24.9901755,51.6735523 C30.4021465,57.5028575 38.531899,57.5035393 44.0443039,51.6653708 C45.3984762,50.2315663 46.1352161,50.170887 47.5001733,51.6749159 C52.7887926,57.5028575 61.1719889,57.5028575 66.55902,51.6755977 C67.9098221,50.2138397 68.6195998,50.1374793 69.9892754,51.655144 C75.3048568,57.5485375 83.8835285,57.4769495 89.1788884,51.5419668 C90.3551107,50.2233848 91.1167905,50.0031666 92.3186269,51.4717425 C94.5645713,54.2152658 97.552648,55.601345 101.048961,56.0042829 C101.664371,56.0751891 102.215072,56.7174354 102.795432,57.0951471 C102.120705,57.3480912 101.431149,57.8498887 100.772599,57.8117085 C97.5189453,57.6242162 94.6683754,56.3533595 92.2020158,54.1954938 C91.7557927,53.8048281 91.2805854,53.4489337 90.7271879,53.003043" id="Fill-1" fill="#FEFEFE" sketch:type="MSShapeGroup" mask="url(#mask-2)"></path>
                        </g>
                        <g id="Group-6">
                            <mask id="mask-4" sketch:name="Clip 5" fill="white">
                                <use xlink:href="#path-3"></use>
                            </mask>
                            <g id="Clip-5"></g>
                            <path d="M292.617029,53.003043 C290.063042,55.4322611 287.265049,57.2028699 283.804461,57.6985313 C279.144733,58.3666856 274.990545,57.2915026 271.496928,54.0529997 C270.518877,53.1469007 269.916948,53.0719038 268.854641,54.0318642 C263.103621,59.2250593 254.925337,59.2557399 249.020633,54.104134 C247.984614,53.2007621 247.431216,53.1516732 246.373627,54.0502726 C240.273448,59.2359679 232.691027,59.2564216 226.530857,54.0904982 C225.381597,53.126447 224.768883,53.2805315 223.701183,54.198221 C217.360367,59.6477692 208.509378,59.0818834 202.862836,52.9525905 C202.501544,52.5605612 202.132837,52.1262609 201.94208,51.6415082 C201.824121,51.3408388 201.913096,50.7613172 202.132837,50.5751885 C202.351904,50.388378 202.947093,50.3897416 203.202559,50.5663252 C203.687877,50.9024477 204.047147,51.4246989 204.46169,51.8664989 C209.681556,57.4305878 218.414586,57.4080887 223.434258,51.6742341 C224.802585,50.1115712 225.544718,50.235657 226.880016,51.6735523 C232.291987,57.5028575 240.42174,57.5035393 245.934145,51.6653708 C247.288317,50.2315663 248.025057,50.170887 249.390014,51.6749159 C254.678633,57.5028575 263.06183,57.5028575 268.448861,51.6755977 C269.799663,50.2138397 270.509441,50.1374793 271.879116,51.655144 C277.194698,57.5485375 285.773369,57.4769495 291.068729,51.5419668 C291.867482,50.5308721 293.293778,50.0679367 293.401626,51.0749406 C293.506105,52.051264 292.617029,53.003043 292.617029,53.003043" id="Fill-4" fill="#FEFEFE" sketch:type="MSShapeGroup" mask="url(#mask-4)"></path>
                        </g>
                        <g id="Group-9">
                            <mask id="mask-6" sketch:name="Clip 8" fill="white">
                                <use xlink:href="#path-5"></use>
                            </mask>
                            <g id="Clip-8"></g>
                            <path d="M112.284951,53.003043 C114.838938,55.4322611 117.636931,57.2028699 121.097519,57.6985313 C125.757247,58.3666856 129.911435,57.2915026 133.405052,54.0529997 C134.383103,53.1469007 134.985032,53.0719038 136.047339,54.0318642 C141.798359,59.2250593 149.976643,59.2557399 155.881347,54.104134 C156.917366,53.2007621 157.470764,53.1516732 158.528353,54.0502726 C164.628532,59.2359679 172.210953,59.2564216 178.371123,54.0904982 C179.520383,53.126447 180.133097,53.2805315 181.200797,54.198221 C187.541613,59.6477692 196.392602,59.0818834 202.039144,52.9525905 C202.400436,52.5605612 202.769143,52.1262609 202.9599,51.6415082 C203.077859,51.3408388 202.98821,50.7613172 202.769143,50.5751885 C202.550076,50.388378 201.954887,50.3897416 201.699421,50.5663252 C201.214103,50.9024477 200.854833,51.4246989 200.44029,51.8664989 C195.220424,57.4305878 186.487394,57.4080887 181.467722,51.6742341 C180.099395,50.1115712 179.357262,50.235657 178.021964,51.6735523 C172.609993,57.5028575 164.48024,57.5035393 158.967835,51.6653708 C157.613663,50.2315663 156.876923,50.170887 155.511966,51.6749159 C150.223346,57.5028575 141.84015,57.5028575 136.453119,51.6755977 C135.102317,50.2138397 134.392539,50.1374793 133.022864,51.655144 C127.707282,57.5485375 119.128611,57.4769495 113.833251,51.5419668 C112.657028,50.2233848 111.895349,50.0031666 110.693512,51.4717425 C108.447568,54.2152658 105.459491,55.601345 101.963179,56.0042829 C101.347768,56.0751891 100.797067,56.7174354 100.216707,57.0951471 C100.891434,57.3480912 101.580991,57.8498887 102.23954,57.8117085 C105.493194,57.6242162 108.343764,56.3533595 110.810123,54.1954938 C111.256346,53.8048281 111.731554,53.4489337 112.284951,53.003043" id="Fill-7" fill="#FEFEFE" sketch:type="MSShapeGroup" mask="url(#mask-6)"></path>
                        </g>
                        <path d="M3.89346456,39.2547459 C3.00573684,38.465233 2.33977255,37.4057312 1.89624571,36.0762405 C1.45204483,34.7481135 1.23095547,33.3293083 1.23095547,31.8211886 L2.34920929,31.8211886 C2.34920929,33.544754 2.58849808,34.9451508 3.06774971,36.0223791 C3.54700135,37.1002893 4.15027873,37.9348003 4.87892995,38.5279577 C5.60555901,39.1197515 6.3962231,39.5158715 7.24890007,39.7122271 C8.10022892,39.910628 8.8996557,40.0088058 9.64515825,40.0088058 C10.5679367,40.0088058 11.4826265,39.8744931 12.3878796,39.605186 C13.2931327,39.3358789 14.1094108,38.9043058 14.837388,38.3118302 C15.5646911,37.7193547 16.1511172,36.938705 16.5953181,35.9691995 C17.0388449,34.9990122 17.2606083,33.814061 17.2606083,32.4136642 C17.2606083,30.7978217 17.0294081,29.3885616 16.5683559,28.1852021 C16.1066297,26.9825244 15.4939156,25.9141593 14.7308876,24.9801069 C13.9671857,24.0460545 13.1070941,23.2115434 12.1479168,22.4752101 C11.1894135,21.7395586 10.2127108,21.0120886 9.21848274,20.2928001 C8.26065352,19.61101 7.34596369,18.9380832 6.4764354,18.2733379 C5.60555901,17.6092743 4.81624303,16.8640777 4.10579123,16.0377482 C2.54333653,14.134872 1.76345729,12.0158685 1.76345729,9.6814192 L1.76345729,8.84622635 C1.76345729,8.39760847 1.82209989,7.86785758 1.94140726,7.25697366 C2.05936653,6.64677154 2.25484188,5.98270799 2.52715926,5.26410124 C2.79812854,4.54617629 3.2355889,3.88211274 3.84021438,3.27122883 C5.2247191,1.76242737 7.15992508,1.00836754 9.64515825,1.00836754 C12.1654422,1.00836754 14.0655974,1.76242737 15.3436018,3.27122883 C15.8761036,3.91756583 16.2576175,4.62662752 16.4888177,5.39841389 C16.7186697,6.17156385 16.8696576,6.90721535 16.9411072,7.60741377 C17.0118828,8.30761218 17.0388449,8.90008777 17.0213195,9.38484052 C17.002446,9.86959327 16.9950314,10.1307189 16.9950314,10.166172 L15.8761036,10.166172 C15.9111543,9.30438929 15.893629,8.54964766 15.8228534,7.90399245 C15.7514038,7.25697366 15.6186154,6.58404685 15.42314,5.88384843 C15.2276647,5.18296822 14.8994009,4.56390283 14.4383487,4.02528866 C13.9058468,3.41508653 13.2479712,2.94806033 12.4680919,2.62421004 C11.6868646,2.30104154 10.7452126,2.13945729 9.64515825,2.13945729 C7.47875212,2.13945729 5.82799648,2.76806774 4.69221729,4.02528866 C4.19409217,4.56390283 3.82201495,5.15637841 3.57328942,5.80271541 C3.32456388,6.44905241 3.14796201,7.05107306 3.0407876,7.60741377 C2.93496129,8.16443627 2.88171111,8.83804487 2.88171111,9.62755779 C2.88171111,10.812509 3.07718646,11.8631475 3.46881121,12.7787916 C3.86111002,13.6944356 4.37810862,14.5384918 5.01913296,15.3102781 C5.6601573,16.0834281 6.39959337,16.791808 7.23676711,17.438145 C8.07394086,18.084482 8.93740267,18.730819 9.8291747,19.3778378 C10.8618238,20.0964445 11.8769475,20.8505044 12.8745459,21.6400173 C13.8714701,22.430212 14.7800935,23.3281295 15.6004159,24.3330881 C17.4527134,26.6320843 18.3788621,29.3258369 18.3788621,32.4136642 C18.3788621,35.3221807 17.4203588,37.585042 15.5033523,39.2008845 C13.9402235,40.4935585 11.9888403,41.1398955 9.64515825,41.1398955 C8.82753204,41.1398955 7.89531683,41.0233094 6.84918668,40.7901372 C5.80170842,40.556965 4.81624303,40.0449406 3.89346456,39.2547459" id="Fill-10" fill="#FEFEFE" sketch:type="MSShapeGroup"></path>
                        <path d="M3.89346456,39.2547459 C3.00573684,38.465233 2.33977255,37.4057312 1.89624571,36.0762405 C1.45204483,34.7481135 1.23095547,33.3293083 1.23095547,31.8211886 L2.34920929,31.8211886 C2.34920929,33.544754 2.58849808,34.9451508 3.06774971,36.0223791 C3.54700135,37.1002893 4.15027873,37.9348003 4.87892995,38.5279577 C5.60555901,39.1197515 6.3962231,39.5158715 7.24890007,39.7122271 C8.10022892,39.910628 8.8996557,40.0088058 9.64515825,40.0088058 C10.5679367,40.0088058 11.4826265,39.8744931 12.3878796,39.605186 C13.2931327,39.3358789 14.1094108,38.9043058 14.837388,38.3118302 C15.5646911,37.7193547 16.1511172,36.938705 16.5953181,35.9691995 C17.0388449,34.9990122 17.2606083,33.814061 17.2606083,32.4136642 C17.2606083,30.7978217 17.0294081,29.3885616 16.5683559,28.1852021 C16.1066297,26.9825244 15.4939156,25.9141593 14.7308876,24.9801069 C13.9671857,24.0460545 13.1070941,23.2115434 12.1479168,22.4752101 C11.1894135,21.7395586 10.2127108,21.0120886 9.21848274,20.2928001 C8.26065352,19.61101 7.34596369,18.9380832 6.4764354,18.2733379 C5.60555901,17.6092743 4.81624303,16.8640777 4.10579123,16.0377482 C2.54333653,14.134872 1.76345729,12.0158685 1.76345729,9.6814192 L1.76345729,8.84622635 C1.76345729,8.39760847 1.82209989,7.86785758 1.94140726,7.25697366 C2.05936653,6.64677154 2.25484188,5.98270799 2.52715926,5.26410124 C2.79812854,4.54617629 3.2355889,3.88211274 3.84021438,3.27122883 C5.2247191,1.76242737 7.15992508,1.00836754 9.64515825,1.00836754 C12.1654422,1.00836754 14.0655974,1.76242737 15.3436018,3.27122883 C15.8761036,3.91756583 16.2576175,4.62662752 16.4888177,5.39841389 C16.7186697,6.17156385 16.8696576,6.90721535 16.9411072,7.60741377 C17.0118828,8.30761218 17.0388449,8.90008777 17.0213195,9.38484052 C17.002446,9.86959327 16.9950314,10.1307189 16.9950314,10.166172 L15.8761036,10.166172 C15.9111543,9.30438929 15.893629,8.54964766 15.8228534,7.90399245 C15.7514038,7.25697366 15.6186154,6.58404685 15.42314,5.88384843 C15.2276647,5.18296822 14.8994009,4.56390283 14.4383487,4.02528866 C13.9058468,3.41508653 13.2479712,2.94806033 12.4680919,2.62421004 C11.6868646,2.30104154 10.7452126,2.13945729 9.64515825,2.13945729 C7.47875212,2.13945729 5.82799648,2.76806774 4.69221729,4.02528866 C4.19409217,4.56390283 3.82201495,5.15637841 3.57328942,5.80271541 C3.32456388,6.44905241 3.14796201,7.05107306 3.0407876,7.60741377 C2.93496129,8.16443627 2.88171111,8.83804487 2.88171111,9.62755779 C2.88171111,10.812509 3.07718646,11.8631475 3.46881121,12.7787916 C3.86111002,13.6944356 4.37810862,14.5384918 5.01913296,15.3102781 C5.6601573,16.0834281 6.39959337,16.791808 7.23676711,17.438145 C8.07394086,18.084482 8.93740267,18.730819 9.8291747,19.3778378 C10.8618238,20.0964445 11.8769475,20.8505044 12.8745459,21.6400173 C13.8714701,22.430212 14.7800935,23.3281295 15.6004159,24.3330881 C17.4527134,26.6320843 18.3788621,29.3258369 18.3788621,32.4136642 C18.3788621,35.3221807 17.4203588,37.585042 15.5033523,39.2008845 C13.9402235,40.4935585 11.9888403,41.1398955 9.64515825,41.1398955 C8.82753204,41.1398955 7.89531683,41.0233094 6.84918668,40.7901372 C5.80170842,40.556965 4.81624303,40.0449406 3.89346456,39.2547459 L3.89346456,39.2547459 Z" id="Stroke-12" stroke="#FEFEFE" sketch:type="MSShapeGroup"></path>
                        <path d="M43.249191,31.9287751 L43.249191,32.7366964 C43.249191,33.2037226 43.1790895,33.7696083 43.0375384,34.4336719 C42.8959873,35.0984172 42.6742239,35.8067971 42.3729222,36.5608569 C42.0722946,37.3155986 41.6206791,38.015797 41.020098,38.662134 C39.6753624,40.1354824 37.7826217,40.8704521 35.341202,40.8704521 C32.9698838,40.8704521 31.1128679,40.1354824 29.7681323,38.662134 C29.1662031,38.015797 28.7152617,37.297872 28.414634,36.5076773 C28.1140064,35.7181644 27.9104424,34.972286 27.8039421,34.2720876 C27.6981158,33.5718892 27.6455396,32.9705504 27.6455396,32.4673893 L27.6455396,31.5517452 L27.6455396,1.27753826 L28.2043295,1.27753826 L28.7637935,1.27753826 L28.7637935,31.6056066 L28.7637935,31.659468 L28.7637935,32.8178294 C28.7637935,33.1941775 28.7988442,33.5630259 28.8702938,33.9216475 C28.9410694,34.5679845 29.1102567,35.2415931 29.3778557,35.9417915 C29.6447806,36.64199 30.0458421,37.297872 30.5810402,37.9080741 C31.686487,39.1291602 33.2718595,39.7393623 35.341202,39.7393623 C37.4435731,39.7393623 39.0835439,39.1114336 40.2597663,37.8542127 C40.7592395,37.2801455 41.1414275,36.6603983 41.4097006,35.995653 C41.6766255,35.3315894 41.8640122,34.6947975 41.9711867,34.0832318 C42.0419622,33.7246102 42.0857757,33.3748519 42.1046491,33.033275 C42.1215005,32.69238 42.1309372,32.3419399 42.1309372,31.9826365 L42.1309372,31.9287751 L42.1309372,1.27753826 L42.6904011,1.27753826 L43.249191,1.27753826 L43.249191,31.9287751 Z" id="Fill-14" fill="#FEFEFE" sketch:type="MSShapeGroup"></path>
                        <path d="M43.249191,31.9287751 L43.249191,32.7366964 C43.249191,33.2037226 43.1790895,33.7696083 43.0375384,34.4336719 C42.8959873,35.0984172 42.6742239,35.8067971 42.3729222,36.5608569 C42.0722946,37.3155986 41.6206791,38.015797 41.020098,38.662134 C39.6753624,40.1354824 37.7826217,40.8704521 35.341202,40.8704521 C32.9698838,40.8704521 31.1128679,40.1354824 29.7681323,38.662134 C29.1662031,38.015797 28.7152617,37.297872 28.414634,36.5076773 C28.1140064,35.7181644 27.9104424,34.972286 27.8039421,34.2720876 C27.6981158,33.5718892 27.6455396,32.9705504 27.6455396,32.4673893 L27.6455396,31.5517452 L27.6455396,1.27753826 L28.2043295,1.27753826 L28.7637935,1.27753826 L28.7637935,31.6056066 L28.7637935,31.659468 L28.7637935,32.8178294 C28.7637935,33.1941775 28.7988442,33.5630259 28.8702938,33.9216475 C28.9410694,34.5679845 29.1102567,35.2415931 29.3778557,35.9417915 C29.6447806,36.64199 30.0458421,37.297872 30.5810402,37.9080741 C31.686487,39.1291602 33.2718595,39.7393623 35.341202,39.7393623 C37.4435731,39.7393623 39.0835439,39.1114336 40.2597663,37.8542127 C40.7592395,37.2801455 41.1414275,36.6603983 41.4097006,35.995653 C41.6766255,35.3315894 41.8640122,34.6947975 41.9711867,34.0832318 C42.0419622,33.7246102 42.0857757,33.3748519 42.1046491,33.033275 C42.1215005,32.69238 42.1309372,32.3419399 42.1309372,31.9826365 L42.1309372,31.9287751 L42.1309372,1.27753826 L42.6904011,1.27753826 L43.249191,1.27753826 L43.249191,31.9287751 L43.249191,31.9287751 Z" id="Stroke-16" stroke="#FEFEFE" sketch:type="MSShapeGroup"></path>
                        <path d="M70.5693653,40.6552791 L70.462865,40.6552791 L70.3570386,40.6552791 L70.2498642,40.6552791 L70.196614,40.6552791 L70.5693653,40.6552791 Z M54.2195373,1.49325664 L54.1662872,1.49325664 L54.113037,1.49325664 L54.0597868,1.49325664 L54.0065366,1.49325664 L53.9539605,1.49325664 L53.9007103,1.49325664 L53.8467861,1.49325664 L54.2195373,1.49325664 Z M54.5922886,40.6552791 L54.0334987,40.6552791 L53.4740348,40.6552791 L53.4740348,2.03187081 L53.4740348,1.49325664 L54.3792879,1.49325664 L69.1289142,35.8070698 C69.342589,36.3102309 69.4935768,36.7056692 69.5832259,36.992021 C69.6722009,37.2804182 69.7524132,37.5135904 69.8245368,37.6922194 L69.8245368,1.49325664 L70.3570386,1.49325664 L70.9427906,1.49325664 L70.9427906,40.6552791 L69.9802431,40.6552791 L55.3937376,6.61077302 C55.3222879,6.43146223 55.170626,6.06397737 54.9400999,5.50627308 C54.7082257,4.94993237 54.5565638,4.51017777 54.4864623,4.18700927 L54.5922886,40.6552791 Z" id="Fill-18" fill="#FEFEFE" sketch:type="MSShapeGroup"></path>
                        <path d="M70.5693653,40.6552791 L70.462865,40.6552791 L70.3570386,40.6552791 L70.2498642,40.6552791 L70.196614,40.6552791 L70.5693653,40.6552791 L70.5693653,40.6552791 Z M54.2195373,1.49325664 L54.1662872,1.49325664 L54.113037,1.49325664 L54.0597868,1.49325664 L54.0065366,1.49325664 L53.9539605,1.49325664 L53.9007103,1.49325664 L53.8467861,1.49325664 L54.2195373,1.49325664 L54.2195373,1.49325664 Z M54.5922886,40.6552791 L54.0334987,40.6552791 L53.4740348,40.6552791 L53.4740348,2.03187081 L53.4740348,1.49325664 L54.3792879,1.49325664 L69.1289142,35.8070698 C69.342589,36.3102309 69.4935768,36.7056692 69.5832259,36.992021 C69.6722009,37.2804182 69.7524132,37.5135904 69.8245368,37.6922194 L69.8245368,1.49325664 L70.3570386,1.49325664 L70.9427906,1.49325664 L70.9427906,40.6552791 L69.9802431,40.6552791 L55.3937376,6.61077302 C55.3222879,6.43146223 55.170626,6.06397737 54.9400999,5.50627308 C54.7082257,4.94993237 54.5565638,4.51017777 54.4864623,4.18700927 L54.5922886,40.6552791 L54.5922886,40.6552791 Z" id="Stroke-20" stroke="#FEFEFE" sketch:type="MSShapeGroup"></path>
                        <path d="M95.0670104,10.2200334 C95.0670104,8.92735937 94.8802977,7.79558783 94.5075464,6.82608233 C94.1347951,5.85657683 93.6373441,5.06706391 93.0165413,4.45617999 C92.3943905,3.84597787 91.6933754,3.38781493 90.9128221,3.08237297 C90.1315948,2.77761281 89.332168,2.62421004 88.5158899,2.62421004 L84.2026252,2.62421004 L81.6459424,2.62421004 L81.6459424,39.524053 L84.2026252,39.524053 L88.5158899,39.524053 C89.332168,39.524053 90.1315948,39.3808771 90.9128221,39.0931617 C91.6933754,38.806128 92.3943905,38.3479651 93.0165413,37.7193547 C93.6373441,37.091426 94.1347951,36.3012313 94.5075464,35.3494523 C94.8802977,34.3983551 95.0670104,33.2577203 95.0670104,31.9289115 L95.0670104,10.2200334 Z M80.5276886,1.49312029 L88.5158899,1.49312029 C89.4750672,1.49312029 90.3971716,1.6642496 91.2855734,2.00514464 C92.1726271,2.34672147 92.9538544,2.8396557 93.6285814,3.48667449 C95.3332613,5.10251699 96.1852642,7.34696995 96.1852642,10.2200334 L96.1852642,31.9289115 C96.1852642,34.8735628 95.3332613,37.1186976 93.6285814,38.6622703 C92.9538544,39.3086073 92.1726271,39.8029052 91.2855734,40.1438002 C90.3971716,40.485377 89.4750672,40.6551428 88.5158899,40.6551428 L84.2026252,40.6551428 L80.5276886,40.6551428 L80.5276886,40.1165286 L80.5276886,1.49312029 Z" id="Fill-22" fill="#FEFEFE" sketch:type="MSShapeGroup"></path>
                        <path d="M95.0670104,10.2200334 C95.0670104,8.92735937 94.8802977,7.79558783 94.5075464,6.82608233 C94.1347951,5.85657683 93.6373441,5.06706391 93.0165413,4.45617999 C92.3943905,3.84597787 91.6933754,3.38781493 90.9128221,3.08237297 C90.1315948,2.77761281 89.332168,2.62421004 88.5158899,2.62421004 L84.2026252,2.62421004 L81.6459424,2.62421004 L81.6459424,39.524053 L84.2026252,39.524053 L88.5158899,39.524053 C89.332168,39.524053 90.1315948,39.3808771 90.9128221,39.0931617 C91.6933754,38.806128 92.3943905,38.3479651 93.0165413,37.7193547 C93.6373441,37.091426 94.1347951,36.3012313 94.5075464,35.3494523 C94.8802977,34.3983551 95.0670104,33.2577203 95.0670104,31.9289115 L95.0670104,10.2200334 L95.0670104,10.2200334 Z M80.5276886,1.49312029 L88.5158899,1.49312029 C89.4750672,1.49312029 90.3971716,1.6642496 91.2855734,2.00514464 C92.1726271,2.34672147 92.9538544,2.8396557 93.6285814,3.48667449 C95.3332613,5.10251699 96.1852642,7.34696995 96.1852642,10.2200334 L96.1852642,31.9289115 C96.1852642,34.8735628 95.3332613,37.1186976 93.6285814,38.6622703 C92.9538544,39.3086073 92.1726271,39.8029052 91.2855734,40.1438002 C90.3971716,40.485377 89.4750672,40.6551428 88.5158899,40.6551428 L84.2026252,40.6551428 L80.5276886,40.6551428 L80.5276886,40.1165286 L80.5276886,1.49312029 L80.5276886,1.49312029 Z" id="Stroke-24" stroke="#FEFEFE" sketch:type="MSShapeGroup"></path>
                        <path d="M107.209198,40.6552791 L107.209198,40.1166649 L107.209198,1.49325664 L107.768662,1.49325664 L108.327452,1.49325664 L108.327452,39.6319122 L122.600522,39.6319122 L122.600522,40.1166649 L122.600522,40.6552791 L107.209198,40.6552791 Z" id="Fill-26" fill="#FEFEFE" sketch:type="MSShapeGroup"></path>
                        <path d="M107.209198,40.6552791 L107.209198,40.1166649 L107.209198,1.49325664 L107.768662,1.49325664 L108.327452,1.49325664 L108.327452,39.6319122 L122.600522,39.6319122 L122.600522,40.1166649 L122.600522,40.6552791 L107.209198,40.6552791 L107.209198,40.6552791 Z" id="Stroke-28" stroke="#FEFEFE" sketch:type="MSShapeGroup"></path>
                        <path d="M139.428793,1.49325664 L139.482043,1.49325664 L139.58787,1.49325664 L139.64112,1.49325664 L139.695044,1.49325664 L139.801544,1.49325664 L139.428793,1.49325664 Z M143.955733,27.7271755 L139.64112,4.45631635 L135.168105,27.7271755 L143.955733,27.7271755 Z M147.842996,40.6552791 L146.671492,40.6552791 L144.27456,28.8582653 L135.008354,28.8582653 L132.505595,40.6552791 L131.333417,40.6552791 L139.161868,1.49325664 L140.067795,1.49325664 L147.842996,40.6552791 Z" id="Fill-30" fill="#FEFEFE" sketch:type="MSShapeGroup"></path>
                        <path d="M139.428793,1.49325664 L139.482043,1.49325664 L139.58787,1.49325664 L139.64112,1.49325664 L139.695044,1.49325664 L139.801544,1.49325664 L139.428793,1.49325664 L139.428793,1.49325664 Z M143.955733,27.7271755 L139.64112,4.45631635 L135.168105,27.7271755 L143.955733,27.7271755 L143.955733,27.7271755 Z M147.842996,40.6552791 L146.671492,40.6552791 L144.27456,28.8582653 L135.008354,28.8582653 L132.505595,40.6552791 L131.333417,40.6552791 L139.161868,1.49325664 L140.067795,1.49325664 L147.842996,40.6552791 L147.842996,40.6552791 Z" id="Stroke-32" stroke="#FEFEFE" sketch:type="MSShapeGroup"></path>
                        <path d="M172.340843,31.9287751 L172.340843,32.7366964 C172.340843,33.2037226 172.270742,33.7696083 172.129191,34.4336719 C171.987639,35.0984172 171.765876,35.8067971 171.464574,36.5608569 C171.163947,37.3155986 170.712331,38.015797 170.11175,38.662134 C168.767015,40.1354824 166.874274,40.8704521 164.432854,40.8704521 C162.061536,40.8704521 160.20452,40.1354824 158.859784,38.662134 C158.257855,38.015797 157.806914,37.297872 157.506286,36.5076773 C157.205659,35.7181644 157.002095,34.972286 156.895594,34.2720876 C156.789768,33.5718892 156.737192,32.9705504 156.737192,32.4673893 L156.737192,31.5517452 L156.737192,1.27753826 L157.295982,1.27753826 L157.855446,1.27753826 L157.855446,31.6056066 L157.855446,31.659468 L157.855446,32.8178294 C157.855446,33.1941775 157.890496,33.5630259 157.961946,33.9216475 C158.032722,34.5679845 158.201909,35.2415931 158.469508,35.9417915 C158.736433,36.64199 159.137494,37.297872 159.672692,37.9080741 C160.778139,39.1291602 162.363512,39.7393623 164.432854,39.7393623 C166.535225,39.7393623 168.175196,39.1114336 169.351418,37.8542127 C169.850892,37.2801455 170.23308,36.6603983 170.501353,35.995653 C170.768278,35.3315894 170.955664,34.6947975 171.062839,34.0832318 C171.133614,33.7246102 171.177428,33.3748519 171.196301,33.033275 C171.213153,32.69238 171.222589,32.3419399 171.222589,31.9826365 L171.222589,31.9287751 L171.222589,1.27753826 L171.782053,1.27753826 L172.340843,1.27753826 L172.340843,31.9287751 Z" id="Fill-34" fill="#FEFEFE" sketch:type="MSShapeGroup"></path>
                        <path d="M172.340843,31.9287751 L172.340843,32.7366964 C172.340843,33.2037226 172.270742,33.7696083 172.129191,34.4336719 C171.987639,35.0984172 171.765876,35.8067971 171.464574,36.5608569 C171.163947,37.3155986 170.712331,38.015797 170.11175,38.662134 C168.767015,40.1354824 166.874274,40.8704521 164.432854,40.8704521 C162.061536,40.8704521 160.20452,40.1354824 158.859784,38.662134 C158.257855,38.015797 157.806914,37.297872 157.506286,36.5076773 C157.205659,35.7181644 157.002095,34.972286 156.895594,34.2720876 C156.789768,33.5718892 156.737192,32.9705504 156.737192,32.4673893 L156.737192,31.5517452 L156.737192,1.27753826 L157.295982,1.27753826 L157.855446,1.27753826 L157.855446,31.6056066 L157.855446,31.659468 L157.855446,32.8178294 C157.855446,33.1941775 157.890496,33.5630259 157.961946,33.9216475 C158.032722,34.5679845 158.201909,35.2415931 158.469508,35.9417915 C158.736433,36.64199 159.137494,37.297872 159.672692,37.9080741 C160.778139,39.1291602 162.363512,39.7393623 164.432854,39.7393623 C166.535225,39.7393623 168.175196,39.1114336 169.351418,37.8542127 C169.850892,37.2801455 170.23308,36.6603983 170.501353,35.995653 C170.768278,35.3315894 170.955664,34.6947975 171.062839,34.0832318 C171.133614,33.7246102 171.177428,33.3748519 171.196301,33.033275 C171.213153,32.69238 171.222589,32.3419399 171.222589,31.9826365 L171.222589,31.9287751 L171.222589,1.27753826 L171.782053,1.27753826 L172.340843,1.27753826 L172.340843,31.9287751 L172.340843,31.9287751 Z" id="Stroke-36" stroke="#FEFEFE" sketch:type="MSShapeGroup"></path>
                        <path d="M191.246545,23.5226443 L191.246545,22.3942817 L198.223667,22.4481431 L198.223667,32.1718333 C198.223667,32.2802379 198.21423,32.5693169 198.196705,33.0370249 C198.177831,33.5054147 198.10773,34.063119 197.983704,34.7115013 C197.859004,35.3592019 197.637241,36.0621275 197.31774,36.8182327 C196.998239,37.5750197 196.554038,38.2765817 195.986485,38.9249641 C194.601981,40.438538 192.701825,41.1939615 190.288042,41.1939615 C187.837859,41.1939615 185.974103,40.45831 184.696099,38.9856434 C184.057096,38.3038533 183.585933,37.56752 183.284632,36.7766435 C182.982656,35.9871306 182.778418,35.2412522 182.671918,34.5417356 C182.565417,33.8408554 182.52093,33.2401983 182.539129,32.7370373 C182.556655,32.2338762 182.565417,31.929116 182.565417,31.8207114 L182.565417,9.68094195 C182.565417,6.80856032 183.418094,4.56342557 185.1221,2.94758307 C185.796153,2.33738095 186.586817,1.8526282 187.49207,1.49332482 C188.397323,1.13470324 189.328864,0.954710656 190.288042,0.954710656 C191.175095,0.954710656 192.07226,1.12652176 192.977513,1.46878038 C193.882766,1.81240258 194.708481,2.36874329 195.453983,3.13916609 C196.199486,3.90958888 196.802763,4.87841259 197.26449,6.04495543 C197.725542,7.21286184 197.956742,8.60371362 197.956742,10.2202379 L196.838488,10.2202379 C196.838488,8.81915928 196.643013,7.6076183 196.252736,6.5835696 C195.861786,5.56020268 195.355572,4.71682834 194.734769,4.05208301 C194.113292,3.38801947 193.411603,2.89372166 192.631724,2.57055316 C191.850497,2.24738466 191.068595,2.08580041 190.288042,2.08580041 C189.470416,2.08580041 188.663574,2.22965811 187.864822,2.51737353 C187.066069,2.80577074 186.354943,3.26325188 185.73414,3.89254413 C185.112663,4.52251817 184.615886,5.31339467 184.243135,6.26653721 C183.871058,7.21899796 183.683671,8.3439516 183.683671,9.63798918 L183.683671,31.8629824 L183.683671,31.9168438 C183.683671,32.8168067 183.728159,33.5810934 183.817808,34.2103856 C183.905435,34.8403597 184.083385,35.5139683 184.35031,36.2332568 C184.615886,36.9518636 185.0156,37.5988823 185.548102,38.174995 C186.683881,39.4342613 188.263861,40.0628717 190.288042,40.0628717 C192.382998,40.0628717 194.015555,39.434943 195.187733,38.1777221 C195.720234,37.6029731 196.119274,36.9743626 196.385525,36.2918908 C196.65245,35.6101007 196.838488,34.9719451 196.944989,34.3794696 C197.051489,33.786994 197.104739,33.0786141 197.104739,32.2522845 L197.104739,32.1984231 L197.051489,23.5792328 L191.246545,23.5226443 Z" id="Fill-38" fill="#FEFEFE" sketch:type="MSShapeGroup"></path>
                        <path d="M191.246545,23.5226443 L191.246545,22.3942817 L198.223667,22.4481431 L198.223667,32.1718333 C198.223667,32.2802379 198.21423,32.5693169 198.196705,33.0370249 C198.177831,33.5054147 198.10773,34.063119 197.983704,34.7115013 C197.859004,35.3592019 197.637241,36.0621275 197.31774,36.8182327 C196.998239,37.5750197 196.554038,38.2765817 195.986485,38.9249641 C194.601981,40.438538 192.701825,41.1939615 190.288042,41.1939615 C187.837859,41.1939615 185.974103,40.45831 184.696099,38.9856434 C184.057096,38.3038533 183.585933,37.56752 183.284632,36.7766435 C182.982656,35.9871306 182.778418,35.2412522 182.671918,34.5417356 C182.565417,33.8408554 182.52093,33.2401983 182.539129,32.7370373 C182.556655,32.2338762 182.565417,31.929116 182.565417,31.8207114 L182.565417,9.68094195 C182.565417,6.80856032 183.418094,4.56342557 185.1221,2.94758307 C185.796153,2.33738095 186.586817,1.8526282 187.49207,1.49332482 C188.397323,1.13470324 189.328864,0.954710656 190.288042,0.954710656 C191.175095,0.954710656 192.07226,1.12652176 192.977513,1.46878038 C193.882766,1.81240258 194.708481,2.36874329 195.453983,3.13916609 C196.199486,3.90958888 196.802763,4.87841259 197.26449,6.04495543 C197.725542,7.21286184 197.956742,8.60371362 197.956742,10.2202379 L196.838488,10.2202379 C196.838488,8.81915928 196.643013,7.6076183 196.252736,6.5835696 C195.861786,5.56020268 195.355572,4.71682834 194.734769,4.05208301 C194.113292,3.38801947 193.411603,2.89372166 192.631724,2.57055316 C191.850497,2.24738466 191.068595,2.08580041 190.288042,2.08580041 C189.470416,2.08580041 188.663574,2.22965811 187.864822,2.51737353 C187.066069,2.80577074 186.354943,3.26325188 185.73414,3.89254413 C185.112663,4.52251817 184.615886,5.31339467 184.243135,6.26653721 C183.871058,7.21899796 183.683671,8.3439516 183.683671,9.63798918 L183.683671,31.8629824 L183.683671,31.9168438 C183.683671,32.8168067 183.728159,33.5810934 183.817808,34.2103856 C183.905435,34.8403597 184.083385,35.5139683 184.35031,36.2332568 C184.615886,36.9518636 185.0156,37.5988823 185.548102,38.174995 C186.683881,39.4342613 188.263861,40.0628717 190.288042,40.0628717 C192.382998,40.0628717 194.015555,39.434943 195.187733,38.1777221 C195.720234,37.6029731 196.119274,36.9743626 196.385525,36.2918908 C196.65245,35.6101007 196.838488,34.9719451 196.944989,34.3794696 C197.051489,33.786994 197.104739,33.0786141 197.104739,32.2522845 L197.104739,32.1984231 L197.051489,23.5792328 L191.246545,23.5226443 L191.246545,23.5226443 Z" id="Stroke-40" stroke="#FEFEFE" sketch:type="MSShapeGroup"></path>
                        <path d="M214.039982,1.49325664 L214.093232,1.49325664 L214.199059,1.49325664 L214.252309,1.49325664 L214.306233,1.49325664 L214.412733,1.49325664 L214.039982,1.49325664 Z M218.566922,27.7271755 L214.252309,4.45631635 L209.779293,27.7271755 L218.566922,27.7271755 Z M222.454185,40.6552791 L221.282681,40.6552791 L218.885749,28.8582653 L209.619543,28.8582653 L207.116784,40.6552791 L205.944606,40.6552791 L213.773057,1.49325664 L214.678984,1.49325664 L222.454185,40.6552791 Z" id="Fill-42" fill="#FEFEFE" sketch:type="MSShapeGroup"></path>
                        <path d="M214.039982,1.49325664 L214.093232,1.49325664 L214.199059,1.49325664 L214.252309,1.49325664 L214.306233,1.49325664 L214.412733,1.49325664 L214.039982,1.49325664 L214.039982,1.49325664 Z M218.566922,27.7271755 L214.252309,4.45631635 L209.779293,27.7271755 L218.566922,27.7271755 L218.566922,27.7271755 Z M222.454185,40.6552791 L221.282681,40.6552791 L218.885749,28.8582653 L209.619543,28.8582653 L207.116784,40.6552791 L205.944606,40.6552791 L213.773057,1.49325664 L214.678984,1.49325664 L222.454185,40.6552791 L222.454185,40.6552791 Z" id="Stroke-44" stroke="#FEFEFE" sketch:type="MSShapeGroup"></path>
                        <path d="M240.933616,23.5253032 L248.336065,40.6014177 L247.164561,40.6014177 L239.868612,23.7407489 L240.933616,23.5253032 Z M244.289051,19.800684 C244.892329,18.8284513 245.37158,17.7212242 245.726132,16.4790027 C246.081358,15.2360994 246.259308,13.967288 246.259308,12.6712051 C246.259308,11.4105752 246.081358,10.1594904 245.726132,8.91726888 C245.37158,7.67436555 244.892329,6.56782025 244.289051,5.59490579 C243.684426,4.65880801 242.814897,3.92997441 241.679118,3.40840499 C240.542665,2.88615379 239.122435,2.62434639 237.41843,2.62434639 L232.412238,2.62434639 L232.412238,22.7712434 L237.41843,22.7712434 C239.477661,22.7712434 240.986866,22.5101178 241.945369,21.9885484 C242.903872,21.4662972 243.684426,20.7367818 244.289051,19.800684 L244.289051,19.800684 Z M239.921862,23.7407489 C239.530912,23.8130187 239.131198,23.8580168 238.723396,23.8757433 C238.31492,23.8941517 237.880156,23.9023332 237.41843,23.9023332 L232.412238,23.9023332 L232.412238,40.6552791 L231.826486,40.6552791 L231.293985,40.6552791 L231.293985,2.13959364 L231.293985,1.49325664 L231.932987,1.49325664 L237.41843,1.49325664 C239.33611,1.49325664 240.942378,1.7986986 242.238582,2.40890073 C243.533438,3.01978464 244.537103,3.88156731 245.24688,4.99493052 C245.920933,6.07215885 246.446021,7.28438162 246.818098,8.63091704 C247.190849,9.97745246 247.378236,11.3335329 247.378236,12.6977949 C247.378236,14.0981917 247.190849,15.4719988 246.818098,16.8185342 C246.446021,18.1657514 245.920933,19.3595658 245.24688,20.4006593 C244.749429,21.1915358 244.163677,21.8555993 243.489624,22.3942135 C242.814897,22.9328277 241.962895,23.3098576 240.933616,23.5253032 L239.921862,23.7407489 Z" id="Fill-46" fill="#FEFEFE" sketch:type="MSShapeGroup"></path>
                        <path d="M240.933616,23.5253032 L248.336065,40.6014177 L247.164561,40.6014177 L239.868612,23.7407489 L240.933616,23.5253032 L240.933616,23.5253032 Z M244.289051,19.800684 C244.892329,18.8284513 245.37158,17.7212242 245.726132,16.4790027 C246.081358,15.2360994 246.259308,13.967288 246.259308,12.6712051 C246.259308,11.4105752 246.081358,10.1594904 245.726132,8.91726888 C245.37158,7.67436555 244.892329,6.56782025 244.289051,5.59490579 C243.684426,4.65880801 242.814897,3.92997441 241.679118,3.40840499 C240.542665,2.88615379 239.122435,2.62434639 237.41843,2.62434639 L232.412238,2.62434639 L232.412238,22.7712434 L237.41843,22.7712434 C239.477661,22.7712434 240.986866,22.5101178 241.945369,21.9885484 C242.903872,21.4662972 243.684426,20.7367818 244.289051,19.800684 L244.289051,19.800684 Z M239.921862,23.7407489 C239.530912,23.8130187 239.131198,23.8580168 238.723396,23.8757433 C238.31492,23.8941517 237.880156,23.9023332 237.41843,23.9023332 L232.412238,23.9023332 L232.412238,40.6552791 L231.826486,40.6552791 L231.293985,40.6552791 L231.293985,2.13959364 L231.293985,1.49325664 L231.932987,1.49325664 L237.41843,1.49325664 C239.33611,1.49325664 240.942378,1.7986986 242.238582,2.40890073 C243.533438,3.01978464 244.537103,3.88156731 245.24688,4.99493052 C245.920933,6.07215885 246.446021,7.28438162 246.818098,8.63091704 C247.190849,9.97745246 247.378236,11.3335329 247.378236,12.6977949 C247.378236,14.0981917 247.190849,15.4719988 246.818098,16.8185342 C246.446021,18.1657514 245.920933,19.3595658 245.24688,20.4006593 C244.749429,21.1915358 244.163677,21.8555993 243.489624,22.3942135 C242.814897,22.9328277 241.962895,23.3098576 240.933616,23.5253032 L239.921862,23.7407489 L239.921862,23.7407489 Z" id="Stroke-48" stroke="#FEFEFE" sketch:type="MSShapeGroup"></path>
                        <mask id="mask-8" sketch:name="Clip 51" fill="white">
                            <use xlink:href="#path-7"></use>
                        </mask>
                        <g id="Clip-51"></g>
                        <path d="M255.153302,41.0321727 L253.609046,41.0321727 L253.609046,39.4695098 L255.153302,39.4695098 L255.153302,41.0321727 Z" id="Fill-50" fill="#FEFEFE" sketch:type="MSShapeGroup" mask="url(#mask-8)"></path>
                        <path d="M255.153302,41.0321727 L253.609046,41.0321727 L253.609046,39.4695098 L255.153302,39.4695098 L255.153302,41.0321727 Z" id="Stroke-52" stroke="#FEFEFE" sketch:type="MSShapeGroup" mask="url(#mask-8)"></path>
                        <path d="M263.407754,40.6552791 L263.407754,1.49325664 L263.967218,1.49325664 L264.526008,1.49325664 L264.526008,40.6552791 L263.967218,40.6552791 L263.407754,40.6552791 Z" id="Fill-53" fill="#FEFEFE" sketch:type="MSShapeGroup" mask="url(#mask-8)"></path>
                        <path d="M263.407754,40.6552791 L263.407754,1.49325664 L263.967218,1.49325664 L264.526008,1.49325664 L264.526008,40.6552791 L263.967218,40.6552791 L263.407754,40.6552791 L263.407754,40.6552791 Z" id="Stroke-54" stroke="#FEFEFE" sketch:type="MSShapeGroup" mask="url(#mask-8)"></path>
                        <path d="M277.466745,39.2547459 C276.579018,38.465233 275.913053,37.4057312 275.469527,36.0762405 C275.025326,34.7481135 274.804236,33.3293083 274.804236,31.8211886 L275.92249,31.8211886 C275.92249,33.544754 276.161779,34.9451508 276.641031,36.0223791 C277.120282,37.1002893 277.72356,37.9348003 278.452211,38.5279577 C279.17884,39.1197515 279.969504,39.5158715 280.822181,39.7122271 C281.67351,39.910628 282.472937,40.0088058 283.218439,40.0088058 C284.141218,40.0088058 285.055907,39.8744931 285.961161,39.605186 C286.866414,39.3358789 287.682692,38.9043058 288.410669,38.3118302 C289.137972,37.7193547 289.724398,36.938705 290.168599,35.9691995 C290.612126,34.9990122 290.833889,33.814061 290.833889,32.4136642 C290.833889,30.7978217 290.602689,29.3885616 290.141637,28.1852021 C289.679911,26.9825244 289.067196,25.9141593 288.304169,24.9801069 C287.540467,24.0460545 286.680375,23.2115434 285.721198,22.4752101 C284.762694,21.7395586 283.785992,21.0120886 282.791764,20.2928001 C281.833934,19.61101 280.919245,18.9380832 280.049716,18.2733379 C279.17884,17.6092743 278.389524,16.8640777 277.679072,16.0377482 C276.116617,14.134872 275.336738,12.0158685 275.336738,9.6814192 L275.336738,8.84622635 C275.336738,8.39760847 275.395381,7.86785758 275.514688,7.25697366 C275.632647,6.64677154 275.828123,5.98270799 276.10044,5.26410124 C276.371409,4.54617629 276.80887,3.88211274 277.413495,3.27122883 C278.798,1.76242737 280.733206,1.00836754 283.218439,1.00836754 C285.738723,1.00836754 287.638878,1.76242737 288.916883,3.27122883 C289.449384,3.91756583 289.830898,4.62662752 290.062099,5.39841389 C290.291951,6.17156385 290.442939,6.90721535 290.514388,7.60741377 C290.585164,8.30761218 290.612126,8.90008777 290.5946,9.38484052 C290.575727,9.86959327 290.568312,10.1307189 290.568312,10.166172 L289.449384,10.166172 C289.484435,9.30438929 289.46691,8.54964766 289.396134,7.90399245 C289.324685,7.25697366 289.191896,6.58404685 288.996421,5.88384843 C288.800946,5.18296822 288.472682,4.56390283 288.01163,4.02528866 C287.479128,3.41508653 286.821252,2.94806033 286.041373,2.62421004 C285.260146,2.30104154 284.318494,2.13945729 283.218439,2.13945729 C281.052033,2.13945729 279.401277,2.76806774 278.265498,4.02528866 C277.767373,4.56390283 277.395296,5.15637841 277.14657,5.80271541 C276.897845,6.44905241 276.721243,7.05107306 276.614069,7.60741377 C276.508242,8.16443627 276.454992,8.83804487 276.454992,9.62755779 C276.454992,10.812509 276.650467,11.8631475 277.042092,12.7787916 C277.434391,13.6944356 277.95139,14.5384918 278.592414,15.3102781 C279.233438,16.0834281 279.972874,16.791808 280.810048,17.438145 C281.647222,18.084482 282.510684,18.730819 283.402456,19.3778378 C284.435105,20.0964445 285.450228,20.8505044 286.447827,21.6400173 C287.444751,22.430212 288.353374,23.3281295 289.173697,24.3330881 C291.025994,26.6320843 291.952143,29.3258369 291.952143,32.4136642 C291.952143,35.3221807 290.99364,37.585042 289.076633,39.2008845 C287.513504,40.4935585 285.562121,41.1398955 283.218439,41.1398955 C282.400813,41.1398955 281.468598,41.0233094 280.422468,40.7901372 C279.374989,40.556965 278.389524,40.0449406 277.466745,39.2547459" id="Fill-55" fill="#FEFEFE" sketch:type="MSShapeGroup" mask="url(#mask-8)"></path>
                        <path d="M277.466745,39.2547459 C276.579018,38.465233 275.913053,37.4057312 275.469527,36.0762405 C275.025326,34.7481135 274.804236,33.3293083 274.804236,31.8211886 L275.92249,31.8211886 C275.92249,33.544754 276.161779,34.9451508 276.641031,36.0223791 C277.120282,37.1002893 277.72356,37.9348003 278.452211,38.5279577 C279.17884,39.1197515 279.969504,39.5158715 280.822181,39.7122271 C281.67351,39.910628 282.472937,40.0088058 283.218439,40.0088058 C284.141218,40.0088058 285.055907,39.8744931 285.961161,39.605186 C286.866414,39.3358789 287.682692,38.9043058 288.410669,38.3118302 C289.137972,37.7193547 289.724398,36.938705 290.168599,35.9691995 C290.612126,34.9990122 290.833889,33.814061 290.833889,32.4136642 C290.833889,30.7978217 290.602689,29.3885616 290.141637,28.1852021 C289.679911,26.9825244 289.067196,25.9141593 288.304169,24.9801069 C287.540467,24.0460545 286.680375,23.2115434 285.721198,22.4752101 C284.762694,21.7395586 283.785992,21.0120886 282.791764,20.2928001 C281.833934,19.61101 280.919245,18.9380832 280.049716,18.2733379 C279.17884,17.6092743 278.389524,16.8640777 277.679072,16.0377482 C276.116617,14.134872 275.336738,12.0158685 275.336738,9.6814192 L275.336738,8.84622635 C275.336738,8.39760847 275.395381,7.86785758 275.514688,7.25697366 C275.632647,6.64677154 275.828123,5.98270799 276.10044,5.26410124 C276.371409,4.54617629 276.80887,3.88211274 277.413495,3.27122883 C278.798,1.76242737 280.733206,1.00836754 283.218439,1.00836754 C285.738723,1.00836754 287.638878,1.76242737 288.916883,3.27122883 C289.449384,3.91756583 289.830898,4.62662752 290.062099,5.39841389 C290.291951,6.17156385 290.442939,6.90721535 290.514388,7.60741377 C290.585164,8.30761218 290.612126,8.90008777 290.5946,9.38484052 C290.575727,9.86959327 290.568312,10.1307189 290.568312,10.166172 L289.449384,10.166172 C289.484435,9.30438929 289.46691,8.54964766 289.396134,7.90399245 C289.324685,7.25697366 289.191896,6.58404685 288.996421,5.88384843 C288.800946,5.18296822 288.472682,4.56390283 288.01163,4.02528866 C287.479128,3.41508653 286.821252,2.94806033 286.041373,2.62421004 C285.260146,2.30104154 284.318494,2.13945729 283.218439,2.13945729 C281.052033,2.13945729 279.401277,2.76806774 278.265498,4.02528866 C277.767373,4.56390283 277.395296,5.15637841 277.14657,5.80271541 C276.897845,6.44905241 276.721243,7.05107306 276.614069,7.60741377 C276.508242,8.16443627 276.454992,8.83804487 276.454992,9.62755779 C276.454992,10.812509 276.650467,11.8631475 277.042092,12.7787916 C277.434391,13.6944356 277.95139,14.5384918 278.592414,15.3102781 C279.233438,16.0834281 279.972874,16.791808 280.810048,17.438145 C281.647222,18.084482 282.510684,18.730819 283.402456,19.3778378 C284.435105,20.0964445 285.450228,20.8505044 286.447827,21.6400173 C287.444751,22.430212 288.353374,23.3281295 289.173697,24.3330881 C291.025994,26.6320843 291.952143,29.3258369 291.952143,32.4136642 C291.952143,35.3221807 290.99364,37.585042 289.076633,39.2008845 C287.513504,40.4935585 285.562121,41.1398955 283.218439,41.1398955 C282.400813,41.1398955 281.468598,41.0233094 280.422468,40.7901372 C279.374989,40.556965 278.389524,40.0449406 277.466745,39.2547459 L277.466745,39.2547459 Z" id="Stroke-56" stroke="#FEFEFE" sketch:type="MSShapeGroup" mask="url(#mask-8)"></path>
                    </g>
                </g>
            </g>
        </g>
    </g>
</svg>