<?xml version="1.0" encoding="UTF-8" standalone="no"?>
<svg width="117px" height="116px" viewBox="0 0 117 116" version="1.1" xmlns="http://www.w3.org/2000/svg" xmlns:xlink="http://www.w3.org/1999/xlink" xmlns:sketch="http://www.bohemiancoding.com/sketch/ns">
    <!-- Generator: Sketch 3.5.2 (25235) - http://www.bohemiancoding.com/sketch -->
    <title>Group 4</title>
    <desc>Created with Sketch.</desc>
    <defs></defs>
    <g id="Page-1" stroke="none" stroke-width="1" fill="none" fill-rule="evenodd" sketch:type="MSPage">
        <g id="undirsida" sketch:type="MSArtboardGroup" transform="translate(-640.000000, -2655.000000)">
            <g id="Group-4" sketch:type="MSLayerGroup" transform="translate(641.000000, 2656.000000)">
                <circle id="Oval-5-Copy" stroke="#375874" stroke-width="2" sketch:type="MSShapeGroup" cx="57.4210526" cy="57" r="57"></circle>
                <path d="M80.812404,83.1431371 L80.812404,59.7301086 L90.9160526,53.8627086 L90.9160526,77.2757371 L80.812404,83.1431371 Z M23.8399716,53.8627086 L33.806458,59.6499657 L33.806458,83.0629943 L23.8399716,77.2757371 L23.8399716,53.8627086 Z M80.0499716,58.5364514 L34.7060526,58.5364514 L31.8748364,56.8921086 L39.6107824,52.3993943 L75.1452418,52.3993943 L82.8811878,56.8921086 L80.0499716,58.5364514 Z M61.6532148,59.9507371 L79.3934851,59.9507371 L79.3934851,83.58628 L61.6532148,83.58628 L61.6532148,59.9507371 Z M43.4097013,79.8337086 L60.2333499,79.8337086 L60.2333499,83.5853371 L43.4097013,83.5853371 L43.4097013,79.8337086 Z M60.2342959,63.4487371 L43.4106472,63.4487371 L43.4106472,59.9507371 L60.2342959,59.9507371 L60.2342959,63.4487371 Z M43.4097013,72.3898514 L60.2333499,72.3898514 L60.2333499,78.4194229 L43.4097013,78.4194229 L43.4097013,72.3898514 Z M60.2342959,70.9755657 L43.4106472,70.9755657 L43.4106472,64.86208 L60.2342959,64.86208 L60.2342959,70.9755657 Z M35.225377,59.9507371 L41.9917283,59.9507371 L41.9917283,83.58628 L35.225377,83.58628 L35.225377,59.9507371 Z M34.7060526,46.7290514 L80.0499716,46.7290514 L90.2160526,52.63228 L84.2906472,56.0737086 L75.6938905,51.08128 C75.5851067,51.0181086 75.4621337,50.9851086 75.3363229,50.9851086 L39.4197013,50.9851086 C39.2938905,50.9851086 39.1709175,51.0181086 39.0621337,51.08128 L30.4663229,56.0737086 L24.5399716,52.63228 L34.7060526,46.7290514 Z M92.2498364,52.3135943 C92.2356472,52.2853086 92.2167283,52.26268 92.1978094,52.2372229 C92.1505121,52.1683943 92.0937553,52.11088 92.0247013,52.0627943 C92.0076743,52.05148 92.0001067,52.03168 91.9830797,52.0213086 L80.5986202,45.4109371 C80.4907824,45.3477657 80.3678094,45.3147657 80.2419986,45.3147657 L34.5140256,45.3147657 C34.3882148,45.3147657 34.2652418,45.3477657 34.157404,45.4109371 L22.7738905,52.0213086 C22.7559175,52.03168 22.7483499,52.05148 22.7313229,52.0627943 C22.6632148,52.11088 22.6055121,52.1683943 22.5582148,52.2372229 C22.5402418,52.26268 22.520377,52.2853086 22.5061878,52.3135943 C22.4560526,52.4107086 22.4210526,52.5153657 22.4210526,52.63228 L22.4210526,77.6821086 C22.4210526,77.9338514 22.555377,78.1667371 22.7738905,78.29308 L34.157404,84.9034514 C34.1678094,84.9100514 34.1819986,84.9081657 34.1933499,84.9138229 C34.2898364,84.9637943 34.3948364,84.9977371 34.5102418,84.99868 C34.5111878,84.99868 34.5130797,84.9996229 34.5140256,84.9996229 L80.2419986,84.9996229 C80.3678094,84.9996229 80.4907824,84.9666229 80.5986202,84.9034514 L91.9830797,78.29308 C92.2015932,78.1667371 92.3349716,77.9338514 92.3349716,77.6821086 L92.3349716,52.63228 C92.3349716,52.5153657 92.2999716,52.4107086 92.2498364,52.3135943 L92.2498364,52.3135943 Z" id="Fill-1" fill="#F14A83" sketch:type="MSShapeGroup"></path>
                <path d="M55.598404,33.2118743 C55.2067824,33.2118743 54.8889445,33.5286743 54.8889445,33.9190171 C54.8889445,34.30936 55.2067824,34.62616 55.598404,34.62616 C57.9642148,34.62616 59.8892148,32.7074457 59.8892148,30.34936 C59.8892148,28.9935314 59.2336743,27.7046457 58.118404,26.8881314 L58.0067824,26.81176 C57.9793499,26.7929029 57.9509716,26.7759314 57.9207013,26.7617886 C57.8582688,26.7297314 57.7958364,26.6967314 57.7371878,26.6637314 C56.8555661,26.1508171 56.3078634,25.2023029 56.3078634,24.1877886 C56.3078634,22.6094457 57.5962418,21.3262171 59.1797553,21.3262171 C59.571377,21.3262171 59.8892148,21.0094171 59.8892148,20.6190743 C59.8892148,20.2277886 59.571377,19.9119314 59.1797553,19.9119314 C56.8139445,19.9119314 54.8889445,21.8297029 54.8889445,24.1877886 C54.8889445,25.7039029 55.7062418,27.1210171 57.0248905,27.8866171 C57.0958364,27.9281029 57.1696202,27.9677029 57.243404,28.0054171 L57.296377,28.0412457 C58.031377,28.5786743 58.4702959,29.4423314 58.4702959,30.34936 C58.4702959,31.9277029 57.1819175,33.2118743 55.598404,33.2118743" id="Fill-5" fill="#F14A83" sketch:type="MSShapeGroup"></path>
                <path d="M62.6034175,39.5775743 C62.2117959,39.5775743 61.893958,39.8943743 61.893958,40.2847171 C61.893958,40.67506 62.2117959,40.99186 62.6034175,40.99186 C64.9692283,40.99186 66.8942283,39.0731457 66.8942283,36.71506 C66.8942283,35.3592314 66.2386878,34.0703457 65.1253094,33.2547743 L65.0136878,33.1784029 C64.9853094,33.1586029 64.9540932,33.1406886 64.922877,33.12466 C64.8613905,33.0954314 64.8017959,33.0633743 64.7422013,33.0284886 C63.8605797,32.5165171 63.312877,31.5680029 63.312877,30.5534886 C63.312877,28.9751457 64.6012553,27.6909743 66.1847688,27.6909743 C66.5763905,27.6909743 66.8942283,27.3741743 66.8942283,26.9838314 C66.8942283,26.5934886 66.5763905,26.2766886 66.1847688,26.2766886 C63.818958,26.2766886 61.893958,28.1954029 61.893958,30.5534886 C61.893958,32.0696029 62.7112553,33.4867171 64.0261202,34.2504314 C64.099904,34.29286 64.1736878,34.33246 64.2484175,34.3701743 L64.3013905,34.4069457 C65.0363905,34.9443743 65.4753094,35.8080314 65.4753094,36.71506 C65.4753094,38.2934029 64.186931,39.5775743 62.6034175,39.5775743" id="Fill-7" fill="#F14A83" sketch:type="MSShapeGroup"></path>
                <path d="M48.0660526,35.7612 C47.6520526,35.7612 47.3160526,36.0972 47.3160526,36.5112 C47.3160526,36.9252 47.6520526,37.2612 48.0660526,37.2612 C50.5670526,37.2612 52.6020526,35.2262 52.6020526,32.7252 C52.6020526,31.2872 51.9090526,29.9202 50.7330526,29.0562 L50.6150526,28.9752 C50.5840526,28.9532 50.5500526,28.9332 50.5160526,28.9172 C50.4530526,28.8862 50.3900526,28.8522 50.3270526,28.8152 C49.3950526,28.2732 48.8160526,27.2662 48.8160526,26.1902 C48.8160526,24.5162 50.1780526,23.1552 51.8520526,23.1552 C52.2660526,23.1552 52.6020526,22.8192 52.6020526,22.4052 C52.6020526,21.9902 52.2660526,21.6552 51.8520526,21.6552 C49.3510526,21.6552 47.3160526,23.6892 47.3160526,26.1902 C47.3160526,27.7992 48.1800526,29.3012 49.5690526,30.1102 C49.6460526,30.1552 49.7250526,30.1982 49.8050526,30.2382 L49.8600526,30.2772 C50.6380526,30.8472 51.1020526,31.7632 51.1020526,32.7252 C51.1020526,34.3992 49.7400526,35.7612 48.0660526,35.7612" id="Fill-3" fill="#F14A83" sketch:type="MSShapeGroup"></path>
            </g>
        </g>
    </g>
</svg>