<?xml version="1.0" encoding="UTF-8" standalone="no"?>
<svg width="116px" height="116px" viewBox="0 0 116 116" version="1.1" xmlns="http://www.w3.org/2000/svg" xmlns:xlink="http://www.w3.org/1999/xlink" xmlns:sketch="http://www.bohemiancoding.com/sketch/ns">
    <!-- Generator: Sketch 3.5.2 (25235) - http://www.bohemiancoding.com/sketch -->
    <title>Group</title>
    <desc>Created with Sketch.</desc>
    <defs></defs>
    <g id="Page-1" stroke="none" stroke-width="1" fill="none" fill-rule="evenodd" sketch:type="MSPage">
        <g id="ICON" sketch:type="MSArtboardGroup" transform="translate(-638.000000, -100.000000)">
            <g id="Group" sketch:type="MSLayerGroup" transform="translate(639.000000, 101.000000)">
                <g id="Group-2" stroke="#375874" stroke-width="2" sketch:type="MSShapeGroup">
                    <circle id="Oval-5-Copy-3" cx="57" cy="57" r="57"></circle>
                </g>
                <g id="Group-20" transform="translate(29.000000, 18.000000)"></g>
                <g id="Group-28" transform="translate(29.000000, 18.000000)" sketch:type="MSShapeGroup">
                    <path d="M29.2663881,78.5192935 L23.5503284,78.5192935 L23.5503284,0.345717391 L29.2663881,0.345717391 L29.2663881,78.5192935 Z" id="Fill-1" fill="#FFFFFF"></path>
                    <path d="M29.2663881,78.5192935 L23.5503284,78.5192935 L23.5503284,0.345717391 L29.2663881,0.345717391 L29.2663881,78.5192935 Z" id="Stroke-2" stroke="#F14A83"></path>
                    <path d="M11.6334806,40.6315989 L46.5002269,32.2434033 C49.6962269,31.4741315 51.679391,28.2403598 50.9070328,25.0571315 L50.9070328,25.0571315 C50.1346746,21.8739033 46.8889433,19.8986641 43.6929433,20.666925 L8.82619701,29.0561315 C5.63019701,29.8243924 3.64703284,33.0581641 4.41837612,36.2413924 L4.41837612,36.2413924 C5.19073433,39.4256315 8.4374806,41.4008707 11.6334806,40.6315989" id="Fill-4" fill="#FFFFFF"></path>
                    <path d="M11.6334806,40.6315989 L46.5002269,32.2434033 C49.6962269,31.4741315 51.679391,28.2403598 50.9070328,25.0571315 L50.9070328,25.0571315 C50.1346746,21.8739033 46.8889433,19.8986641 43.6929433,20.666925 L8.82619701,29.0561315 C5.63019701,29.8243924 3.64703284,33.0581641 4.41837612,36.2413924 L4.41837612,36.2413924 C5.19073433,39.4256315 8.4374806,41.4008707 11.6334806,40.6315989 L11.6334806,40.6315989 Z" id="Stroke-5" stroke="#F14A83"></path>
                    <path d="M11.6334806,62.7541761 L46.5002269,54.3659804 C49.6962269,53.5967087 51.679391,50.362937 50.9070328,47.1797087 L50.9070328,47.1797087 C50.1346746,43.9964804 46.8889433,42.0212413 43.6929433,42.7895022 L8.82619701,51.1787087 C5.63019701,51.9469696 3.64703284,55.1807413 4.41837612,58.3639696 L4.41837612,58.3639696 C5.19073433,61.5482087 8.4374806,63.5234478 11.6334806,62.7541761" id="Fill-6" fill="#FFFFFF"></path>
                    <path d="M11.6334806,62.7541761 L46.5002269,54.3659804 C49.6962269,53.5967087 51.679391,50.362937 50.9070328,47.1797087 L50.9070328,47.1797087 C50.1346746,43.9964804 46.8889433,42.0212413 43.6929433,42.7895022 L8.82619701,51.1787087 C5.63019701,51.9469696 3.64703284,55.1807413 4.41837612,58.3639696 L4.41837612,58.3639696 C5.19073433,61.5482087 8.4374806,63.5234478 11.6334806,62.7541761 L11.6334806,62.7541761 Z" id="Stroke-7" stroke="#F14A83"></path>
                    <path d="M45.4350627,32.0927837 L5.71798806,22.5370337 C2.07745075,21.6616207 -0.181773134,17.978012 0.697152239,14.3520228 L0.697152239,14.3520228 C1.57709254,10.7250228 5.2754806,8.47482717 8.91601791,9.35125109 L48.6330925,18.9070011 C52.2736299,19.7824141 54.5328537,23.4660228 53.6539284,27.092012 L53.6539284,27.092012 C52.7739881,30.719012 49.0756,32.9692076 45.4350627,32.0927837" id="Fill-8" fill="#FFFFFF"></path>
                    <path d="M45.4350627,32.0927837 L5.71798806,22.5370337 C2.07745075,21.6616207 -0.181773134,17.978012 0.697152239,14.3520228 L0.697152239,14.3520228 C1.57709254,10.7250228 5.2754806,8.47482717 8.91601791,9.35125109 L48.6330925,18.9070011 C52.2736299,19.7824141 54.5328537,23.4660228 53.6539284,27.092012 L53.6539284,27.092012 C52.7739881,30.719012 49.0756,32.9692076 45.4350627,32.0927837 L45.4350627,32.0927837 Z" id="Stroke-9" stroke="#F14A83"></path>
                    <path d="M45.4350627,52.9691609 L5.71798806,43.4134109 C2.07745075,42.5379978 -0.181773134,38.8543891 0.697152239,35.2284 L0.697152239,35.2284 C1.57709254,31.6014 5.2754806,29.3512043 8.91601791,30.2276283 L48.6330925,39.7833783 C52.2736299,40.6587913 54.5328537,44.3424 53.6539284,47.9683891 L53.6539284,47.9683891 C52.7739881,51.5943783 49.0756,53.8455848 45.4350627,52.9691609" id="Fill-10" fill="#FFFFFF"></path>
                    <path d="M45.4350627,52.9691609 L5.71798806,43.4134109 C2.07745075,42.5379978 -0.181773134,38.8543891 0.697152239,35.2284 L0.697152239,35.2284 C1.57709254,31.6014 5.2754806,29.3512043 8.91601791,30.2276283 L48.6330925,39.7833783 C52.2736299,40.6587913 54.5328537,44.3424 53.6539284,47.9683891 L53.6539284,47.9683891 C52.7739881,51.5943783 49.0756,53.8455848 45.4350627,52.9691609 L45.4350627,52.9691609 Z" id="Stroke-11" stroke="#F14A83"></path>
                    <path d="M45.4350627,74.3199391 L5.71798806,64.7641891 C2.07745075,63.8887761 -0.181773134,60.2051674 0.697152239,56.5791783 L0.697152239,56.5791783 C1.57709254,52.9521783 5.2754806,50.7019826 8.91601791,51.5784065 L48.6330925,61.1341565 C60.8182866,63.3671674 64.5369731,69.5415587 65.4696896,72.3517761 C67.5969731,78.7576565 67.0631224,85.6972761 66.8997194,87.7715804 C66.5952418,91.6209717 62.3061672,92.394287 59.1649731,92.4893087 C55.7558388,92.5924174 53.1809731,91.1670913 52.8460478,88.4832326 C52.2421672,83.6391457 54.2750627,75.6724826 45.4350627,74.3199391" id="Fill-12" fill="#FFFFFF"></path>
                    <path d="M45.4350627,74.3199391 L5.71798806,64.7641891 C2.07745075,63.8887761 -0.181773134,60.2051674 0.697152239,56.5791783 L0.697152239,56.5791783 C1.57709254,52.9521783 5.2754806,50.7019826 8.91601791,51.5784065 L48.6330925,61.1341565 C60.8182866,63.3671674 64.5369731,69.5415587 65.4696896,72.3517761 C67.5969731,78.7576565 67.0631224,85.6972761 66.8997194,87.7715804 C66.5952418,91.6209717 62.3061672,92.394287 59.1649731,92.4893087 C55.7558388,92.5924174 53.1809731,91.1670913 52.8460478,88.4832326 C52.2421672,83.6391457 54.2750627,75.6724826 45.4350627,74.3199391 L45.4350627,74.3199391 Z" id="Stroke-13" stroke="#F14A83"></path>
                    <path d="M2.84889552,15.4963272 L2.84889552,15.4963272 C3.50149254,12.8033707 6.2478806,11.1334141 8.95164179,11.7834033 L46.9514627,20.9257076 C49.654209,21.5756967 51.3318806,24.3111098 50.6792836,27.0040663 L50.6792836,27.0040663 L2.84889552,15.4963272 Z" id="Fill-14" fill="#FFFFFF"></path>
                    <path d="M2.84889552,15.4963272 L2.84889552,15.4963272 C3.50149254,12.8033707 6.2478806,11.1334141 8.95164179,11.7834033 L46.9514627,20.9257076 C49.654209,21.5756967 51.3318806,24.3111098 50.6792836,27.0040663 L50.6792836,27.0040663 L2.84889552,15.4963272 L2.84889552,15.4963272 Z" id="Stroke-15" stroke="#F14A83"></path>
                    <path d="M2.84889552,36.3726033 L2.84889552,36.3726033 C3.50149254,33.6796467 6.2478806,32.0096902 8.95164179,32.6596793 L46.9514627,41.8019837 C49.654209,42.4519728 51.3318806,45.1873859 50.6792836,47.8803424 L50.6792836,47.8803424 L2.84889552,36.3726033 Z" id="Fill-16" fill="#FFFFFF"></path>
                    <path d="M2.84889552,36.3726033 L2.84889552,36.3726033 C3.50149254,33.6796467 6.2478806,32.0096902 8.95164179,32.6596793 L46.9514627,41.8019837 C49.654209,42.4519728 51.3318806,45.1873859 50.6792836,47.8803424 L50.6792836,47.8803424 L2.84889552,36.3726033 L2.84889552,36.3726033 Z" id="Stroke-17" stroke="#F14A83"></path>
                    <path d="M48.382,69.462913 L1.70761194,57.7388478 C2.38862687,54.9296413 5.25071642,53.1848804 8.06814925,53.8631739 L49.9520896,63.8626957 C59.8273134,66.2190326 63.165403,70.9751739 63.8870149,73.152587 C65.531194,78.1159565 65.1160896,84.9120326 64.9892239,86.5183043 C64.7527463,89.5013804 61.4329254,90.101837 59.0021791,90.1756304 C56.3633731,90.2565 54.3720896,89.1526304 54.1132836,87.0732717 C53.6474328,83.3209239 55.5483881,71.3936739 48.382,69.462913" id="Fill-18" fill="#FFFFFF"></path>
                    <path d="M48.382,69.462913 L1.70761194,57.7388478 C2.38862687,54.9296413 5.25071642,53.1848804 8.06814925,53.8631739 L49.9520896,63.8626957 C59.8273134,66.2190326 63.165403,70.9751739 63.8870149,73.152587 C65.531194,78.1159565 65.1160896,84.9120326 64.9892239,86.5183043 C64.7527463,89.5013804 61.4329254,90.101837 59.0021791,90.1756304 C56.3633731,90.2565 54.3720896,89.1526304 54.1132836,87.0732717 C53.6474328,83.3209239 55.5483881,71.3936739 48.382,69.462913 L48.382,69.462913 Z" id="Stroke-19" stroke="#F14A83"></path>
                </g>
            </g>
        </g>
    </g>
</svg>