<?xml version="1.0" encoding="UTF-8" standalone="no"?>
<svg width="25px" height="26px" viewBox="0 0 25 26" version="1.1" xmlns="http://www.w3.org/2000/svg" xmlns:xlink="http://www.w3.org/1999/xlink" xmlns:sketch="http://www.bohemiancoding.com/sketch/ns">
    <!-- Generator: Sketch 3.5.2 (25235) - http://www.bohemiancoding.com/sketch -->
    <title>Page 1</title>
    <desc>Created with Sketch.</desc>
    <defs>
        <path id="path-1" d="M0,0.0220027341 L27.9995425,0.0220027341 L27.9995425,28.2368421 L0,28.2368421"></path>
    </defs>
    <g id="Page-1" stroke="none" stroke-width="1" fill="none" fill-rule="evenodd" sketch:type="MSPage">
        <g id="undirsida" sketch:type="MSArtboardGroup" transform="translate(-1292.000000, -19.000000)">
            <g id="Page-1" sketch:type="MSLayerGroup" transform="translate(1291.000000, 19.000000)">
                <mask id="mask-2" sketch:name="Clip 2" fill="white">
                    <use xlink:href="#path-1"></use>
                </mask>
                <g id="Clip-2"></g>
                <path d="M15.4665354,13.1319891 L14.8520646,14.0026584 L13.9877531,14.6222321 C12.9222536,15.3858737 11.6728868,15.7897549 10.3748672,15.7897549 C6.92852824,15.7897549 4.12496936,12.9642646 4.12496936,9.49169679 C4.12496936,6.01908801 6.92852824,3.19363866 10.3748672,3.19363866 C13.8212062,3.19363866 16.624806,6.01908801 16.624806,9.49169679 C16.6255004,10.7993174 16.2247994,12.0581514 15.4665354,13.1319891 M25.5414958,22.54441 L18.0123695,14.9575992 C19.1022157,13.413781 19.7496528,11.5307074 19.7496528,9.49169679 C19.7496936,4.27455701 15.5521986,0.0446096009 10.3748672,0.0446096009 C5.19749506,0.0446096009 1,4.27455701 1,9.49169679 C1,14.7088366 5.19749506,18.938784 10.3748672,18.938784 C12.3981846,18.938784 14.26672,18.286222 15.7989755,17.1879909 L23.3281018,24.7747198 C23.633744,25.0825421 24.0344859,25.2368421 24.4352277,25.2368421 C24.8360512,25.2368421 25.2367114,25.0825421 25.5415775,24.7747198 C26.1528211,24.1591162 26.1528211,23.1600136 25.5414958,22.54441" id="Fill-1" fill="#FFFFFF" sketch:type="MSShapeGroup" mask="url(#mask-2)"></path>
            </g>
        </g>
    </g>
</svg>