<?xml version="1.0" encoding="utf-8"?>
<!-- Generator: Adobe Illustrator 19.1.0, SVG Export Plug-In . SVG Version: 6.00 Build 0)  -->
<svg version="1.1" id="Layer_1" xmlns:sketch="http://www.bohemiancoding.com/sketch/ns"
	 xmlns="http://www.w3.org/2000/svg" xmlns:xlink="http://www.w3.org/1999/xlink" x="0px" y="0px" viewBox="-203.5 402.4 45 37"
	 style="enable-background:new -203.5 402.4 45 37;" xml:space="preserve">
<style type="text/css">
	.st0{opacity:0.7;}
	.st1{fill:#375874;}
</style>
<title>Group 7</title>
<desc>Created with Sketch.</desc>
<g class="st0">
	<g>
		<rect x="-203.5" y="402.4" class="st1" width="9.4" height="7.5"/>
		<rect x="-191.6" y="402.4" class="st1" width="9.4" height="7.5"/>
		<rect x="-179.7" y="402.4" class="st1" width="9.4" height="7.5"/>
		<rect x="-167.9" y="402.4" class="st1" width="9.4" height="7.5"/>
	</g>
	<g>
		<rect x="-203.5" y="412.2" class="st1" width="9.4" height="7.5"/>
		<rect x="-191.6" y="412.2" class="st1" width="9.4" height="7.5"/>
		<rect x="-179.7" y="412.2" class="st1" width="9.4" height="7.5"/>
		<rect x="-167.9" y="412.2" class="st1" width="9.4" height="7.5"/>
	</g>
	<g>
		<rect x="-203.5" y="422.1" class="st1" width="9.4" height="7.5"/>
		<rect x="-191.6" y="422.1" class="st1" width="9.4" height="7.5"/>
		<rect x="-179.7" y="422.1" class="st1" width="9.4" height="7.5"/>
		<rect x="-167.9" y="422.1" class="st1" width="9.4" height="7.5"/>
	</g>
	<g>
		<rect x="-203.5" y="431.9" class="st1" width="9.4" height="7.5"/>
		<rect x="-191.6" y="431.9" class="st1" width="9.4" height="7.5"/>
		<rect x="-179.7" y="431.9" class="st1" width="9.4" height="7.5"/>
		<rect x="-167.9" y="431.9" class="st1" width="9.4" height="7.5"/>
	</g>
</g>
</svg>
