<?xml version="1.0" encoding="utf-8"?>
<!-- Generator: Adobe Illustrator 19.1.0, SVG Export Plug-In . SVG Version: 6.00 Build 0)  -->
<svg version="1.1" id="Layer_1" xmlns="http://www.w3.org/2000/svg" xmlns:xlink="http://www.w3.org/1999/xlink" x="0px" y="0px"
	 viewBox="-221.3 367.4 52.3 82.9" style="enable-background:new -221.3 367.4 52.3 82.9;" xml:space="preserve">
<style type="text/css">
	.st0{fill:none;}
	.st1{fill:#19FFB3;}
</style>
<path class="st0" d="M-195.1,409.5c8.5,0,15.3-6.9,15.3-15.3c0-8.5-6.9-15.3-15.3-15.3s-15.3,6.9-15.3,15.3
	C-210.5,402.6-203.6,409.5-195.1,409.5z"/>
<path class="st1" d="M-196.9,449.4c0.4,0.6,1,1,1.7,1c0.7,0,1.4-0.4,1.7-1c1-1.7,24.4-42.1,24.4-55.8c0-14.4-11.7-26.1-26.2-26.1
	c-14.4,0-26.1,11.7-26.1,26.1C-221.3,407.3-197.9,447.6-196.9,449.4z M-195.1,378.8c8.5,0,15.3,6.9,15.3,15.3
	c0,8.5-6.9,15.3-15.3,15.3s-15.3-6.9-15.3-15.3C-210.5,385.7-203.6,378.8-195.1,378.8z"/>
</svg>
