<?xml version="1.0" encoding="utf-8"?>
<!-- Generator: Adobe Illustrator 19.1.0, SVG Export Plug-In . SVG Version: 6.00 Build 0)  -->
<svg version="1.1" id="Layer_1" xmlns="http://www.w3.org/2000/svg" xmlns:xlink="http://www.w3.org/1999/xlink" x="0px" y="0px"
	 viewBox="-229 409 74.3 48" style="enable-background:new -229 409 74.3 48;" xml:space="preserve">
<style type="text/css">
	.st0{fill:#375874;}
</style>
<g>
	<g>
		<path class="st0" d="M-156.2,457.1h-71.3c-0.8,0-1.5-0.7-1.5-1.5v-45c0-0.8,0.7-1.5,1.5-1.5h71.3c0.8,0,1.5,0.7,1.5,1.5v45
			C-154.7,456.4-155.4,457.1-156.2,457.1z M-226,454.1h68.3v-42H-226V454.1z"/>
	</g>
	<g>
		<path class="st0" d="M-191.9,438.6c-0.3,0-0.6-0.1-0.9-0.3l-35.7-26.6c-0.7-0.5-0.8-1.4-0.3-2.1c0.5-0.7,1.4-0.8,2.1-0.3
			l34.8,25.9l34.8-25.9c0.7-0.5,1.6-0.4,2.1,0.3c0.5,0.7,0.4,1.6-0.3,2.1l-35.7,26.6C-191.2,438.5-191.6,438.6-191.9,438.6z"/>
	</g>
	<g>
		<path class="st0" d="M-227.5,457.1c-0.4,0-0.9-0.2-1.2-0.5c-0.5-0.6-0.4-1.6,0.2-2.1l28.7-23.6c0.6-0.5,1.6-0.4,2.1,0.2
			c0.5,0.6,0.4,1.6-0.2,2.1l-28.7,23.6C-226.9,457-227.2,457.1-227.5,457.1z"/>
	</g>
	<g>
		<path class="st0" d="M-156.2,457.1c-0.3,0-0.7-0.1-1-0.3l-28.7-23.6c-0.6-0.5-0.7-1.5-0.2-2.1c0.5-0.6,1.5-0.7,2.1-0.2l28.7,23.6
			c0.6,0.5,0.7,1.5,0.2,2.1C-155.4,456.9-155.8,457.1-156.2,457.1z"/>
	</g>
</g>
</svg>
