<?xml version="1.0" encoding="UTF-8" standalone="no"?>
<svg width="116px" height="116px" viewBox="0 0 116 116" version="1.1" xmlns="http://www.w3.org/2000/svg" xmlns:xlink="http://www.w3.org/1999/xlink" xmlns:sketch="http://www.bohemiancoding.com/sketch/ns">
    <!-- Generator: Sketch 3.5.2 (25235) - http://www.bohemiancoding.com/sketch -->
    <title>Group 27</title>
    <desc>Created with Sketch.</desc>
    <defs>
        <path id="path-1" d="M0,0.751058824 L69.2905405,0.751058824 L69.2905405,80 L0,80 L0,0.751058824 Z"></path>
    </defs>
    <g id="Page-1" stroke="none" stroke-width="1" fill="none" fill-rule="evenodd" sketch:type="MSPage">
        <g id="ICON" sketch:type="MSArtboardGroup" transform="translate(-793.000000, -924.000000)">
            <g id="Group-27" sketch:type="MSLayerGroup" transform="translate(794.000000, 925.000000)">
                <g id="Group-4">
                    <circle id="Oval-5-Copy-4" stroke="#375874" stroke-width="2" sketch:type="MSShapeGroup" cx="57" cy="57" r="57"></circle>
                    <g id="Page-1-Copy-2" transform="translate(23.000000, 2.000000)">
                        <mask id="mask-2" sketch:name="Clip 2" fill="white">
                            <use xlink:href="#path-1"></use>
                        </mask>
                        <g id="Clip-2"></g>
                        <path d="M41.4239189,56.5731765 L22.1909459,56.5731765 L22.1909459,51.1058824 L41.4239189,51.1058824 L41.4239189,56.5731765 Z M22.1909459,57.9849412 L41.4239189,57.9849412 L41.4239189,63.4512941 L22.1909459,63.4512941 L22.1909459,57.9849412 Z M21.4814865,70.5101176 C21.8731081,70.5101176 22.1909459,70.1938824 22.1909459,69.8042353 L22.1909459,64.8630588 L41.4239189,64.8630588 L41.4239189,69.8042353 C41.4239189,70.1938824 41.7417568,70.5101176 42.1333784,70.5101176 C42.525,70.5101176 42.8428378,70.1938824 42.8428378,69.8042353 L42.8428378,41.6884706 C42.8428378,35.1962353 48.1514865,29.9134118 54.6775676,29.9134118 C55.0691892,29.9134118 55.387027,29.5971765 55.387027,29.2075294 C55.387027,28.8178824 55.0691892,28.5016471 54.6775676,28.5016471 C47.3691892,28.5016471 41.4239189,34.4178824 41.4239189,41.6884706 L41.4239189,49.6950588 L22.1909459,49.6950588 L22.1909459,41.6884706 C22.1909459,35.1962353 27.4995946,29.9134118 34.0256757,29.9134118 C34.4172973,29.9134118 34.7351351,29.5971765 34.7351351,29.2075294 C34.7351351,28.8178824 34.4172973,28.5016471 34.0256757,28.5016471 C26.7172973,28.5016471 20.772027,34.4178824 20.772027,41.6884706 L20.772027,69.8042353 C20.772027,70.1938824 21.0898649,70.5101176 21.4814865,70.5101176 L21.4814865,70.5101176 Z" id="Fill-1" fill="#F14A83" sketch:type="MSShapeGroup" mask="url(#mask-2)"></path>
                        <path d="M57.8928378,72.8208 C55.9035135,72.8208 54.285,74.4311529 54.285,76.4104471 C54.285,77.6113882 53.3031081,78.5883294 52.0960811,78.5883294 C50.8890541,78.5883294 49.9071622,77.6113882 49.9071622,76.4104471 C49.9071622,74.4311529 48.2886486,72.8208 46.2993243,72.8208 C44.31,72.8208 42.6914865,74.4311529 42.6914865,76.4104471 C42.6914865,77.6113882 41.7095946,78.5883294 40.5025676,78.5883294 C39.2955405,78.5883294 38.3136486,77.6113882 38.3136486,76.4104471 C38.3136486,74.4311529 36.6951351,72.8208 34.7058108,72.8208 C32.7164865,72.8208 31.097973,74.4311529 31.097973,76.4104471 C31.097973,77.6113882 30.1160811,78.5883294 28.9090541,78.5883294 C27.702027,78.5883294 26.7201351,77.6113882 26.7201351,76.4104471 C26.7201351,74.4311529 25.1016216,72.8208 23.1122973,72.8208 C21.122027,72.8208 19.5035135,74.4311529 19.5035135,76.4104471 C19.5035135,77.6113882 18.5216216,78.5883294 17.3155405,78.5883294 C16.1085135,78.5883294 15.1266216,77.6113882 15.1266216,76.4104471 C15.1266216,74.4311529 13.5081081,72.8208 11.5187838,72.8208 C9.52945946,72.8208 7.91094595,74.4311529 7.91094595,76.4104471 C7.91094595,77.6113882 6.92905405,78.5883294 5.72202703,78.5883294 C4.51405405,78.5883294 3.53216216,77.6113882 3.53216216,76.4104471 C3.53216216,76.0208 3.21432432,75.7045647 2.8227027,75.7045647 C2.43108108,75.7045647 2.11324324,76.0208 2.11324324,76.4104471 C2.11324324,78.3897412 3.73175676,80.0000941 5.72202703,80.0000941 C7.71135135,80.0000941 9.32986486,78.3897412 9.32986486,76.4104471 C9.32986486,75.2095059 10.3117568,74.2325647 11.5187838,74.2325647 C12.7248649,74.2325647 13.7077027,75.2095059 13.7077027,76.4104471 C13.7077027,78.3897412 15.3252703,80.0000941 17.3155405,80.0000941 C19.3048649,80.0000941 20.9224324,78.3897412 20.9224324,76.4104471 C20.9224324,75.2095059 21.9052703,74.2325647 23.1122973,74.2325647 C24.3193243,74.2325647 25.3012162,75.2095059 25.3012162,76.4104471 C25.3012162,78.3897412 26.9197297,80.0000941 28.9090541,80.0000941 C30.8983784,80.0000941 32.5168919,78.3897412 32.5168919,76.4104471 C32.5168919,75.2095059 33.4987838,74.2325647 34.7058108,74.2325647 C35.9128378,74.2325647 36.8947297,75.2095059 36.8947297,76.4104471 C36.8947297,78.3897412 38.5132432,80.0000941 40.5025676,80.0000941 C42.4918919,80.0000941 44.1104054,78.3897412 44.1104054,76.4104471 C44.1104054,75.2095059 45.0922973,74.2325647 46.2993243,74.2325647 C47.5063514,74.2325647 48.4882432,75.2095059 48.4882432,76.4104471 C48.4882432,78.3897412 50.1067568,80.0000941 52.0960811,80.0000941 C54.0854054,80.0000941 55.7039189,78.3897412 55.7039189,76.4104471 C55.7039189,75.2095059 56.6858108,74.2325647 57.8928378,74.2325647 C59.0998649,74.2325647 60.0817568,75.2095059 60.0817568,76.4104471 C60.0817568,76.8000941 60.3995946,77.1163294 60.7912162,77.1163294 C61.1837838,77.1163294 61.5006757,76.8000941 61.5006757,76.4104471 C61.5006757,74.4311529 59.8831081,72.8208 57.8928378,72.8208" id="Fill-3" fill="#F14A83" sketch:type="MSShapeGroup" mask="url(#mask-2)"></path>
                    </g>
                </g>
            </g>
        </g>
    </g>
</svg>