<?xml version="1.0" encoding="UTF-8" standalone="no"?>
<svg width="117px" height="116px" viewBox="0 0 117 116" version="1.1" xmlns="http://www.w3.org/2000/svg" xmlns:xlink="http://www.w3.org/1999/xlink" xmlns:sketch="http://www.bohemiancoding.com/sketch/ns">
    <!-- Generator: Sketch 3.5.2 (25235) - http://www.bohemiancoding.com/sketch -->
    <title>Group 7</title>
    <desc>Created with Sketch.</desc>
    <defs>
        <path id="path-1" d="M0,0.758 L49.587,0.758 L49.587,47 L0,47"></path>
    </defs>
    <g id="Page-1" stroke="none" stroke-width="1" fill="none" fill-rule="evenodd" sketch:type="MSPage">
        <g id="undirsida" sketch:type="MSArtboardGroup" transform="translate(-989.000000, -2655.000000)">
            <g id="Group-7" sketch:type="MSLayerGroup" transform="translate(990.000000, 2656.000000)">
                <circle id="Oval-5-Copy-2" stroke="#375874" stroke-width="2" sketch:type="MSShapeGroup" cx="57.4210526" cy="57" r="57"></circle>
                <path d="M84.2006472,82 C82.2113229,82 80.5928094,83.6103529 80.5928094,85.5896471 C80.5928094,86.7905882 79.6109175,87.7675294 78.4038905,87.7675294 C77.1968634,87.7675294 76.2149716,86.7905882 76.2149716,85.5896471 C76.2149716,83.6103529 74.596458,82 72.6071337,82 C70.6178094,82 68.9992959,83.6103529 68.9992959,85.5896471 C68.9992959,86.7905882 68.017404,87.7675294 66.810377,87.7675294 C65.6033499,87.7675294 64.621458,86.7905882 64.621458,85.5896471 C64.621458,83.6103529 63.0029445,82 61.0136202,82 C59.0242959,82 57.4057824,83.6103529 57.4057824,85.5896471 C57.4057824,86.7905882 56.4238905,87.7675294 55.2168634,87.7675294 C54.0098364,87.7675294 53.0279445,86.7905882 53.0279445,85.5896471 C53.0279445,83.6103529 51.409431,82 49.4201067,82 C47.4298364,82 45.8113229,83.6103529 45.8113229,85.5896471 C45.8113229,86.7905882 44.829431,87.7675294 43.6233499,87.7675294 C42.4163229,87.7675294 41.434431,86.7905882 41.434431,85.5896471 C41.434431,83.6103529 39.8159175,82 37.8265932,82 C35.8372688,82 34.2187553,83.6103529 34.2187553,85.5896471 C34.2187553,86.7905882 33.2368634,87.7675294 32.0298364,87.7675294 C30.8218634,87.7675294 29.8399716,86.7905882 29.8399716,85.5896471 C29.8399716,85.2 29.5221337,84.8837647 29.1305121,84.8837647 C28.7388905,84.8837647 28.4210526,85.2 28.4210526,85.5896471 C28.4210526,87.5689412 30.0395661,89.1792941 32.0298364,89.1792941 C34.0191607,89.1792941 35.6376743,87.5689412 35.6376743,85.5896471 C35.6376743,84.3887059 36.6195661,83.4117647 37.8265932,83.4117647 C39.0326743,83.4117647 40.0155121,84.3887059 40.0155121,85.5896471 C40.0155121,87.5689412 41.6330797,89.1792941 43.6233499,89.1792941 C45.6126743,89.1792941 47.2302418,87.5689412 47.2302418,85.5896471 C47.2302418,84.3887059 48.2130797,83.4117647 49.4201067,83.4117647 C50.6271337,83.4117647 51.6090256,84.3887059 51.6090256,85.5896471 C51.6090256,87.5689412 53.2275391,89.1792941 55.2168634,89.1792941 C57.2061878,89.1792941 58.8247013,87.5689412 58.8247013,85.5896471 C58.8247013,84.3887059 59.8065932,83.4117647 61.0136202,83.4117647 C62.2206472,83.4117647 63.2025391,84.3887059 63.2025391,85.5896471 C63.2025391,87.5689412 64.8210526,89.1792941 66.810377,89.1792941 C68.7997013,89.1792941 70.4182148,87.5689412 70.4182148,85.5896471 C70.4182148,84.3887059 71.4001067,83.4117647 72.6071337,83.4117647 C73.8141607,83.4117647 74.7960526,84.3887059 74.7960526,85.5896471 C74.7960526,87.5689412 76.4145661,89.1792941 78.4038905,89.1792941 C80.3932148,89.1792941 82.0117283,87.5689412 82.0117283,85.5896471 C82.0117283,84.3887059 82.9936202,83.4117647 84.2006472,83.4117647 C85.4076743,83.4117647 86.3895661,84.3887059 86.3895661,85.5896471 C86.3895661,85.9792941 86.707404,86.2955294 87.0990256,86.2955294 C87.4915932,86.2955294 87.8084851,85.9792941 87.8084851,85.5896471 C87.8084851,83.6103529 86.1909175,82 84.2006472,82" id="Fill-3" fill="#F14A83" sketch:type="MSShapeGroup"></path>
                <g id="Group-3" transform="translate(32.421053, 30.000000)">
                    <mask id="mask-2" sketch:name="Clip 2" fill="white">
                        <use xlink:href="#path-1"></use>
                    </mask>
                    <g id="Clip-2"></g>
                    <path d="M10.3673,22.3687 L10.4713,22.3027 L10.4313,21.3417 L10.2663,21.2787 C2.3323,18.2237 1.2803,13.0727 1.1583,11.3587 C1.2383,11.3597 1.3253,11.3617 1.4083,11.3637 C2.3943,11.3867 4.2253,11.4247 6.6963,10.6027 L7.4913,10.1857 L7.5053,10.1347 C8.9033,5.2867 13.4003,1.9007 18.4433,1.9007 C24.7233,1.9007 29.8333,7.0107 29.8333,13.2907 C29.8333,17.2677 27.7013,21.0137 24.2713,23.0637 L23.0293,23.8067 L24.4573,24.1637 C24.8273,24.2547 28.1123,25.0617 29.4083,25.2457 C33.9433,25.8907 38.1313,25.1017 41.1963,23.0257 C43.5933,21.4017 44.7553,19.6237 45.3793,18.6677 C45.4253,18.5977 45.4723,18.5237 45.5183,18.4547 C46.9043,19.8487 48.8283,23.9607 48.3783,29.5557 C47.5673,39.6247 35.6243,45.8577 25.0243,45.8577 C13.8523,45.8577 4.7633,39.6187 4.7633,31.9497 C4.7633,28.4277 6.6953,25.0637 10.2033,22.4777 C10.2503,22.4427 10.2993,22.4117 10.3673,22.3687 M45.8463,17.2327 L45.8463,17.2327 C45.6953,17.1247 45.5143,17.0867 45.3393,17.1207 C44.9793,17.1887 44.7823,17.4917 44.4223,18.0437 C43.8423,18.9317 42.7623,20.5837 40.5543,22.0787 C37.7243,23.9977 33.8223,24.7197 29.5693,24.1147 C28.7423,23.9967 27.0213,23.6017 25.9123,23.3397 C29.0883,20.9727 30.9763,17.2367 30.9763,13.2907 C30.9763,6.3807 25.3533,0.7577 18.4433,0.7577 C13.0593,0.7577 8.1643,4.3317 6.5173,9.4577 C4.1493,10.2807 2.3853,10.2417 1.4313,10.2217 C0.8053,10.2077 0.4603,10.1987 0.2023,10.4517 C0.0733,10.5767 0.0013,10.7457 0.0003,10.9287 C-0.0067,12.1347 0.3993,18.2977 8.9693,21.9837 C5.5183,24.7297 3.6203,28.2617 3.6203,31.9497 C3.6203,40.2477 13.2223,46.9997 25.0243,46.9997 C36.1323,46.9997 48.6553,40.3667 49.5173,29.6477 C50.0243,23.3317 47.6273,18.5057 45.8463,17.2327" id="Fill-1" fill="#F14A83" sketch:type="MSShapeGroup" mask="url(#mask-2)"></path>
                    <path d="M13.3482,11.4023 C13.3482,9.9503 14.5302,8.7683 15.9822,8.7683 C17.4342,8.7683 18.6152,9.9503 18.6152,11.4023 C18.6152,12.8543 17.4342,14.0353 15.9822,14.0353 C14.5302,14.0353 13.3482,12.8543 13.3482,11.4023 M15.9822,15.1783 C18.0642,15.1783 19.7582,13.4843 19.7582,11.4023 C19.7582,9.3193 18.0642,7.6263 15.9822,7.6263 C13.8992,7.6263 12.2052,9.3193 12.2052,11.4023 C12.2052,13.4843 13.8992,15.1783 15.9822,15.1783" id="Fill-4" fill="#F14A83" sketch:type="MSShapeGroup" mask="url(#mask-2)"></path>
                </g>
            </g>
        </g>
    </g>
</svg>